<?xml version="1.0" encoding="utf-8"?>
<!-- Generator: Adobe Illustrator 24.3.0, SVG Export Plug-In . SVG Version: 6.00 Build 0)  -->
<svg version="1.1" id="Layer_1" xmlns="http://www.w3.org/2000/svg" xmlns:xlink="http://www.w3.org/1999/xlink" x="0px" y="0px"
	 viewBox="0 0 114 123" style="enable-background:new 0 0 114 123;" xml:space="preserve">
<g>
	<polygon points="101,49.6 66,67.1 66,103.6 101,86 	"/>
	<path d="M57.2,0L0,26.7v70.5L54.3,123L114,94.9V26.3L57.2,0z M52,116L5,94.1V37l8.6,4.1v47.1L52,106V116z M5,29.5l9.6-4.5l42,19.7
		l12.1-5.9L26.9,19.2L57,5l52,24.5l-9,4.3L57.2,13.6l-11.7,5.6l42.7,20.1L57,54L5,29.5z M109,91.3l-51,24.2V60.8l51-24.2V91.3z"/>
</g>
</svg>
