<?xml version="1.0" encoding="UTF-8" standalone="no"?>
<svg
   xmlns:dc="http://purl.org/dc/elements/1.1/"
   xmlns:cc="http://creativecommons.org/ns#"
   xmlns:rdf="http://www.w3.org/1999/02/22-rdf-syntax-ns#"
   xmlns:svg="http://www.w3.org/2000/svg"
   xmlns="http://www.w3.org/2000/svg"
   xmlns:sodipodi="http://sodipodi.sourceforge.net/DTD/sodipodi-0.dtd"
   xmlns:inkscape="http://www.inkscape.org/namespaces/inkscape"
   width="114px"
   height="123px"
   viewBox="0 0 114 123"
   version="1.1"
   id="svg187"
   sodipodi:docname="LSO_logo--blue.svg"
   inkscape:version="1.0.1 (c497b03c, 2020-09-10)">
  <metadata
     id="metadata193">
    <rdf:RDF>
      <cc:Work
         rdf:about="">
        <dc:format>image/svg+xml</dc:format>
        <dc:type
           rdf:resource="http://purl.org/dc/dcmitype/StillImage" />
        <dc:title>Group 4</dc:title>
      </cc:Work>
    </rdf:RDF>
  </metadata>
  <defs
     id="defs191" />
  <sodipodi:namedview
     pagecolor="#ffffff"
     bordercolor="#666666"
     borderopacity="1"
     objecttolerance="10"
     gridtolerance="10"
     guidetolerance="10"
     inkscape:pageopacity="0"
     inkscape:pageshadow="2"
     inkscape:window-width="1301"
     inkscape:window-height="836"
     id="namedview189"
     showgrid="false"
     inkscape:zoom="5.9756098"
     inkscape:cx="57"
     inkscape:cy="61.5"
     inkscape:window-x="453"
     inkscape:window-y="28"
     inkscape:window-maximized="0"
     inkscape:current-layer="svg187" />
  <title
     id="title176">Group 4</title>
  <g
     id="Page-1"
     stroke="none"
     stroke-width="1"
     fill="none"
     fill-rule="evenodd">
    <g
       id="Home"
       transform="translate(-83.000000, -83.000000)"
       fill-rule="nonzero">
      <g
         id="Group-4"
         transform="translate(83.000000, 83.000000)">
        <polygon
           id="Path"
           fill="#000000"
           points="114 94.9230522 54.2860287 123 0 97.1868963 0 26.7239214 57.2245134 0 114 26.2685126" />
        <path
           d="M58.02,60.7677429 L58.02,115.56 L109.02,91.3189406 L109.02,36.56 L58.02,60.7677429 Z M101.02,86.037483 L66.02,103.56 L66.02,67.082517 L101.02,49.56 L101.02,86.037483 Z"
           id="Shape"
           fill="#FFFFFF" />
        <polygon
           id="polygon180"
           fill="#FFFFFF"
           points="57.2226625 13.635002 99.9805074 33.7480772 109 29.4966941 56.9966767 5 26.8807439 19.1889084 68.7346456 38.8127108 56.5978782 44.6972069 14.5977504 24.9742275 5 29.4966941 56.9966767 54 88.2358919 39.2755364 45.4979868 19.2153556" />
        <polygon
           id="polygon182"
           fill="#FFFFFF"
           points="13.6434473 88.1945617 13.6434473 41.0960986 5 37 5 94.1452457 52 116 52 105.953217" />
      </g>
    </g>
  </g>
  <path
     style="fill:none;stroke-width:0.167347"
     d="M 28.558499,104.99984 C 15.814961,99.067932 5.3283654,94.154488 5.2549548,94.081077 5.1815443,94.007667 5.1405255,81.179839 5.1638018,65.574794 l 0.042321,-28.37281 4.1,1.947047 4.0999992,1.947046 0.08367,23.58599 0.08367,23.585991 19.161225,8.873861 19.161224,8.873861 0.04436,4.89415 c 0.0244,2.69178 -0.01325,4.88989 -0.08367,4.88468 -0.07042,-0.005 -10.55457,-4.86286 -23.29811,-10.79477 z"
     id="path252" />
  <path
     style="fill:none;stroke-width:0.167347"
     d="M 31.113162,41.703361 C 16.921421,35.011717 5.3619317,29.492066 5.4254069,29.437471 5.4888821,29.382878 7.5786792,28.381172 10.0694,27.211462 l 4.528584,-2.126748 20.987965,9.85446 20.987964,9.854461 1.844675,-0.872827 c 1.014573,-0.480055 3.79742,-1.824594 6.184107,-2.987864 l 4.33943,-2.115038 -1.159838,-0.555498 C 67.144376,37.956885 57.811633,33.580863 47.042857,28.537916 36.274082,23.494968 27.406769,19.318408 27.337718,19.256669 27.235571,19.165338 55.246922,5.8406014 56.665306,5.3058105 c 0.362947,-0.1368463 3.821197,1.4441731 26.106123,11.9350215 14.128265,6.651019 25.740711,12.138714 25.805441,12.194874 0.0647,0.05616 -1.84183,1.023984 -4.23678,2.150714 L 99.98563,33.635024 79.153311,23.839135 C 67.695536,18.451398 58.076406,13.926612 57.777464,13.784057 l -0.54353,-0.259191 -5.890436,2.799376 c -3.23974,1.539657 -5.888819,2.84549 -5.88684,2.901853 0.002,0.05636 9.561623,4.583191 21.243654,10.059619 11.682031,5.476429 21.187811,10.000779 21.123953,10.054112 C 87.695288,39.447548 57.504876,53.669279 57.143731,53.792438 57.018659,53.83509 45.304902,48.395006 31.113162,41.703361 Z"
     id="path254" />
  <path
     style="fill:none;stroke-width:0.167347"
     d="M 58.171429,88.068387 V 60.806842 L 83.302027,48.879047 c 13.82183,-6.560287 25.230703,-11.96621 25.353063,-12.013162 0.18449,-0.0708 0.22223,4.566103 0.22112,27.168251 l -0.001,27.253619 -25.184879,11.965305 c -13.851683,6.58092 -25.259959,11.99041 -25.351725,12.02109 -0.110444,0.0369 -0.166847,-9.16007 -0.166847,-27.205763 z m 25.520195,6.775864 17.487966,-8.743505 V 67.81772 c 0,-12.061646 -0.0569,-18.283026 -0.16713,-18.283026 -0.0919,0 -8.036722,3.934577 -17.655105,8.743504 l -17.487967,8.743505 v 18.283026 c 0,12.061646 0.05687,18.283031 0.167134,18.283031 0.09192,0 8.036721,-3.934582 17.655102,-8.743509 z"
     id="path256" />
  <path
     style="fill:#0000ff;stroke-width:0.167347"
     d="M 27.089923,109.97799 0.10841605,97.144898 0.14706518,61.947072 0.18571429,26.749247 28.634694,13.455839 C 44.281633,6.1444655 57.201692,0.19054067 57.345935,0.22489507 57.490178,0.25924948 70.273571,6.1466562 85.753476,13.308021 l 28.145284,13.020665 -0.0422,34.285681 -0.0422,34.285681 -29.700277,13.966302 c -16.33515,7.68147 -29.777293,13.96145 -29.871429,13.95551 -0.09414,-0.006 -12.312834,-5.78567 -27.152661,-12.84387 z M 52.10752,111.00431 52.06327,105.86985 32.863618,96.989004 13.663969,88.108163 13.618719,64.529005 13.573469,40.949846 9.4002158,38.96676 C 7.1049262,37.876063 5.1655785,36.983673 5.090554,36.983673 c -0.075024,0 -0.1173664,12.889912 -0.094093,28.644249 L 5.0387755,94.27217 28.467347,105.1879 c 12.885714,6.00364 23.486139,10.92363 23.5565,10.9333 0.07036,0.01 0.108014,-2.29293 0.08367,-5.11689 z m 31.5572,-7.50023 25.36852,-12.048978 0.006,-27.50068 c 0.003,-15.476819 -0.0577,-27.476292 -0.1394,-27.444898 -0.0799,0.03068 -11.563969,5.477823 -25.5202,12.104762 l -25.374962,12.048979 -1.67e-4,27.50068 c -1.17e-4,15.592855 0.06304,27.476525 0.145851,27.444895 0.08029,-0.0307 11.561851,-5.47782 25.514538,-12.10476 z M 72.646318,46.731633 c 8.538031,-4.026786 15.495496,-7.396735 15.461035,-7.488776 -0.03446,-0.09204 -9.51399,-4.600717 -21.065618,-10.01928 -11.551628,-5.418564 -21.052866,-9.899278 -21.113864,-9.957143 -0.116329,-0.110357 10.945648,-5.43242 11.291357,-5.43242 0.10959,0 9.687799,4.465906 21.284911,9.924234 11.597112,5.45833 21.198616,9.954815 21.336677,9.992189 0.261864,0.07089 9.093274,-4.033271 9.155114,-4.254597 0.0194,-0.06955 -11.671831,-5.634804 -25.980592,-12.367233 L 56.999409,4.8878267 41.987607,11.960819 c -8.256491,3.890146 -15.031349,7.139314 -15.05524,7.220372 -0.02389,0.08106 9.290905,4.515136 20.699546,9.853503 11.40864,5.338367 20.740967,9.743775 20.738502,9.789796 -0.0025,0.04602 -2.640379,1.358621 -5.862033,2.916889 l -5.857553,2.833217 -0.787659,-0.342273 c -0.433212,-0.18825 -9.711435,-4.54159 -20.618272,-9.674087 -10.906837,-5.132499 -20.023965,-9.408777 -20.260285,-9.502843 -0.377064,-0.150087 -1.007838,0.101528 -5.1517251,2.055022 -2.5971287,1.224329 -4.7557337,2.280549 -4.7968997,2.347156 -0.041166,0.06661 1.8629265,1.037079 4.2313168,2.156604 27.003595,12.764434 47.517028,22.415001 47.668496,22.425696 0.102752,0.0073 7.172484,-3.281453 15.710517,-7.308238 z"
     id="path258" />
  <path
     style="fill:#0000ff;stroke-width:0.167347"
     d="M 66.036735,85.304623 V 67.18905 L 83.52449,58.445651 101.01224,49.702253 V 67.817826 85.933399 L 83.52449,94.676798 66.036735,103.4202 Z"
     id="path260" />
</svg>
