<?xml version="1.0" encoding="utf-8"?>
<!-- Generator: Adobe Illustrator 24.3.0, SVG Export Plug-In . SVG Version: 6.00 Build 0)  -->
<svg version="1.1" id="Layer_1" xmlns="http://www.w3.org/2000/svg" xmlns:xlink="http://www.w3.org/1999/xlink" x="0px" y="0px"
	 viewBox="0 0 261 45" style="enable-background:new 0 0 261 45;" xml:space="preserve">
<path d="M0.6,45c0.4-1.3,0.5-2.7,1.1-3.8c4.3-7.4,8.7-14.7,13-22.1c0.3-0.5,0.6-1,1.1-1.8c1.9,3.3,3.7,6.4,5.7,9.8
	c1.9-3.3,3.7-6.4,5.7-9.8c2.8,4.8,5.5,9.2,8.3,14.1c-0.9,0-1.5,0-2,0c-6.4,0-12.8,0-19.3,0c-2.9,0-2.9,0.1-4.1,3.3
	c0.7,0,1.4,0,2.1,0c7.5,0,15,0,22.5,0c3.2,0,3.2,0,4.5,3.5c-0.7,0-1.4,0-2,0c-8.9,0-17.8,0.1-26.8-0.1c-2.5-0.1-3.6,1-4.4,3.4
	c0.7,0,1.4,0,2,0c9.8,0,19.6,0.1,29.4-0.1c3.1-0.1,5.1,0.6,6.2,3.6C29.3,45,14.9,45,0.6,45z"/>
<path d="M24.2,0c3.6,1,6.9,2.4,9.5,5.2c5,5.3,6.2,13.5,2.5,19.7c-3-5-5.9-9.9-9-15.1c-1.9,3.3-3.7,6.4-5.7,9.8
	c-1.9-3.3-3.7-6.4-5.7-9.8C12.7,15.1,9.7,20,6.5,25.4c-2.8-5.9-2.8-11.3,0-16.6c2.3-4.3,6-7.1,10.8-8.3c0.4-0.1,0.8-0.3,1.2-0.4
	C20.4,0,22.3,0,24.2,0z"/>
<g>
	<path d="M61.9,32.8V18l-0.6,4.2l-1.9,10.6H57l-1.8-10.6L54.6,18v14.9h-2.8v-20h4.3L57.9,23l0.5,3.9L59,23l1.7-10.1h4.2v20H61.9z"/>
	<path d="M75.3,33.2c-2.9,0-4.8-1.9-4.8-4.7V17.2c0-2.8,1.9-4.7,4.8-4.7s4.8,2,4.8,4.7v11.2C80.1,31.2,78.2,33.2,75.3,33.2z
		 M76.9,17c0-1-0.6-1.6-1.6-1.6c-1,0-1.6,0.7-1.6,1.6v11.7c0,1,0.6,1.6,1.6,1.6c1,0,1.6-0.7,1.6-1.6V17z"/>
	<path d="M90.6,32.8h-4.9v-20h4.9c2.9,0,4.6,1.8,4.6,4.8v10.6C95.1,31.2,93.5,32.8,90.6,32.8z M92,17.6c0-1.3-0.5-1.9-1.6-1.9h-1.5
		V30h1.5c1.1,0,1.6-0.7,1.6-1.9V17.6z"/>
	<path d="M100.8,32.8v-20h8v2.8H104v5.5h3.3v2.6H104v6.1h4.8v2.9H100.8z"/>
	<path d="M121.8,32.9c-1.2,0-1.7-1.2-1.7-2.8v-4.3c0-0.8-0.4-1.5-1.3-1.5h-1.6v8.4h-3.2v-20h5.1c2.2,0,3.9,1.2,3.9,3.9v3.5
		c0,1.3-0.6,2.3-1.9,2.8c1.3,0.4,2,1.5,2,2.8V30c0,0.9,0.2,1.5,0.6,2v0.9H121.8z M120,16.9c0-0.8-0.3-1.3-1.1-1.3h-1.6v6.3h1.5
		c0.8,0,1.2-0.5,1.2-1.4V16.9z"/>
	<path d="M136.2,32.8l-3.4-9.1l-1.1-3.1v12.1h-2.9v-20h2.8l3.1,9.1l1,3.1V12.9h2.8v20H136.2z"/>
	<path d="M152,32.8v-20h8v2.8h-4.8v5.5h3.3v2.6h-3.3v6.1h4.8v2.9H152z"/>
	<path d="M165.3,32.8v-20h3.2V30h4.6v2.9H165.3z"/>
	<path d="M178.1,32.8v-20h8v2.8h-4.8v5.5h3.3v2.6h-3.3v6.1h4.8v2.9H178.1z"/>
	<path d="M196,33.2c-2.9,0-4.8-2-4.8-4.8V17.3c0-2.7,1.9-4.8,4.8-4.8c2.9,0,4.5,1.9,4.5,4.6V20h-2.8V17c0-1-0.5-1.6-1.6-1.6
		c-1.1,0-1.7,0.7-1.7,1.6v11.7c0,0.9,0.5,1.6,1.7,1.6c1.1,0,1.6-0.7,1.6-1.6v-3h2.8v2.9C200.5,31.3,198.9,33.2,196,33.2z"/>
	<path d="M211.3,15.8v17.1h-3.2V15.8H205v-2.9h9.3v2.9H211.3z"/>
	<path d="M227.1,32.9c-1.2,0-1.7-1.2-1.7-2.8v-4.3c0-0.8-0.4-1.5-1.3-1.5h-1.6v8.4h-3.2v-20h5.1c2.2,0,3.9,1.2,3.9,3.9v3.5
		c0,1.3-0.6,2.3-1.9,2.8c1.3,0.4,1.9,1.5,1.9,2.8V30c0,0.9,0.2,1.5,0.6,2v0.9H227.1z M225.2,16.9c0-0.8-0.3-1.3-1.1-1.3h-1.6v6.3
		h1.5c0.8,0,1.2-0.5,1.2-1.4V16.9z"/>
	<path d="M238.7,33.2c-2.9,0-4.8-1.9-4.8-4.7V17.2c0-2.8,1.9-4.7,4.8-4.7s4.8,2,4.8,4.7v11.2C243.4,31.2,241.5,33.2,238.7,33.2z
		 M240.2,17c0-1-0.6-1.6-1.6-1.6c-1,0-1.6,0.7-1.6,1.6v11.7c0,1,0.6,1.6,1.6,1.6c1,0,1.6-0.7,1.6-1.6V17z"/>
	<path d="M256.4,32.8l-3.4-9.1l-1.1-3.1v12.1H249v-20h2.8L255,22l1,3.1V12.9h2.8v20H256.4z"/>
</g>
</svg>
