<?xml version="1.0" encoding="utf-8"?>
<!-- Generator: Adobe Illustrator 24.3.0, SVG Export Plug-In . SVG Version: 6.00 Build 0)  -->
<svg version="1.1" id="Layer_1" xmlns="http://www.w3.org/2000/svg" xmlns:xlink="http://www.w3.org/1999/xlink" x="0px" y="0px"
	 viewBox="0 0 170 49" style="enable-background:new 0 0 170 49;" xml:space="preserve">
<g id="main_layer">
	<g>
		<path d="M31.8,35.6c0.5,2,1.4,2.7,2.8,2.7c1.5,0,2.3-0.9,2.3-2.7V2.2h9.6v33.4c0,4.7-0.6,6.8-3,9.1c-1.7,1.7-4.9,3.1-8.9,3.1
			c-3.2,0-6.3-1.1-8.3-3.1c-1.7-1.7-2.7-3.5-4.2-9.1l-5.9-22.3c-0.5-2-1.4-2.7-2.8-2.7c-1.5,0-2.3,0.9-2.3,2.7v33.4H1.5V13.4
			c0-4.7,0.6-6.8,3-9.1c1.7-1.7,4.9-3.1,8.9-3.1c3.2,0,6.3,1.1,8.3,3.1c1.7,1.7,2.7,3.5,4.2,9.1L31.8,35.6z"/>
		<path d="M158.9,46.8l-11.1-34.7c-0.1-0.4-0.2-0.7-0.4-0.9c-0.3-0.4-0.7-0.6-1.3-0.6c-0.6,0-1,0.2-1.3,0.6
			c-0.2,0.2-0.3,0.5-0.4,0.9l-11.1,34.7h-9.9l12.1-37.9c0.6-2,1.5-3.7,2.7-4.8c2-1.9,4.3-2.9,7.9-2.9s6,1,7.9,2.9
			c1.1,1.1,2,2.8,2.7,4.8l12.1,37.9L158.9,46.8L158.9,46.8z"/>
		<path d="M109.8,46.8c6.3,0,9.4-1.3,11.8-3.8c2.7-2.7,4-5.6,4-9.9c0-3.9-1.4-7.4-3.6-9.6c-2.8-2.8-6.3-3.7-12-3.7l-8,0
			c-3,0-4.3-0.4-5.2-1.3c-0.7-0.6-1-1.6-1-2.7c0-1.2,0.3-2.3,1.1-3.1c0.7-0.7,1.7-1,3.6-1h23V2.2h-21.3c-6.3,0-9.4,1.3-11.8,3.8
			c-2.7,2.7-4,5.6-4,9.9c0,3.9,1.4,7.4,3.6,9.6c2.8,2.8,6.3,3.7,12,3.7l8,0c3,0,4.3,0.4,5.2,1.3c0.7,0.6,1,1.6,1,2.7
			c0,1.2-0.3,2.3-1.1,3.1c-0.7,0.7-1.7,1-3.6,1H87.8L78.7,8.9c-0.6-2-1.5-3.7-2.7-4.8c-2-1.9-4.3-2.9-7.9-2.9c-3.7,0-6,1-7.9,2.9
			c-1.1,1.1-2,2.8-2.7,4.8L45.3,46.8h9.9l11.1-34.7c0.1-0.4,0.2-0.7,0.4-0.9c0.3-0.4,0.7-0.6,1.3-0.6c0.6,0,1,0.2,1.3,0.6
			c0.2,0.2,0.3,0.5,0.4,0.9l11.1,34.7L109.8,46.8L109.8,46.8z"/>
	</g>
</g>
</svg>
