<?xml version="1.0" encoding="utf-8"?>
<!-- Generator: Adobe Illustrator 24.3.0, SVG Export Plug-In . SVG Version: 6.00 Build 0)  -->
<svg version="1.1" id="Layer_1" xmlns="http://www.w3.org/2000/svg" xmlns:xlink="http://www.w3.org/1999/xlink" x="0px" y="0px"
	 viewBox="0 0 216 61" style="enable-background:new 0 0 216 61;" xml:space="preserve">
<path d="M213,11.6c0-0.1,0-0.2-0.1-0.3h-0.5c-1.1,0-1.7,0-3.6,0c-0.6,0-1.6,0-1.9,0h-0.6c-0.1,0-0.1,0.3-0.1,0.4
	c0,0.1,0,0.3,0.1,0.4c0.7,0.1,1.5,0.3,2.2,0.6c0.4,0.6,0.6,1.4,0.6,2.2c0,0.3,0,0.6,0,1.5v4.4c0,0.3,0,0.6,0,0.9
	c-0.4-0.4-0.9-1.2-1.7-2.1l-7.1-7.8c-0.1-0.1-0.2-0.2-0.3-0.3c-0.2,0-0.5,0-0.6,0c-1.4,0-3.8-0.1-4.2-0.1c0,0.1-0.1,0.2-0.1,0.3
	c0,0.1,0,0.3,0.1,0.4c0.6,0.1,1.2,0.4,1.6,0.8c0.4,0.4,0.8,0.8,1.1,1.3c0.1,0.2,0.1,0.4,0.1,0.7c0,1.1-0.1,2.6-0.1,4.1v4.3
	c0,0.5,0,1.1-0.1,1.6c-0.6,0.6-1.4,0.9-2.2,1.1c0,0.1-0.1,0.2-0.1,0.4c0,0.1,0,0.3,0.1,0.3h0.4c0.4,0,1.4-0.1,2-0.1
	c0.9,0,1.6,0.1,2.4,0.1h1.3c0.1,0,0.1-0.3,0.1-0.4c0-0.1,0-0.2-0.1-0.3c-1-0.1-1.9-0.6-2.5-1.3c-0.2-0.9-0.3-1.7-0.3-2.6
	c0-0.7,0-1.6,0-2.9c0-1.7,0-3.1,0-3.9c0.1,0.1,0.3,0.3,0.4,0.5l9.8,11c0.1,0.1,0.5,0.1,0.6,0.1c0.1,0,0.2,0,0.3,0
	c0.1-0.3,0.2-0.6,0.2-1c0-0.6,0-1.2,0-1.6v-8.8c0-2.6,1.3-3.4,2.7-3.4C212.9,11.9,213,11.8,213,11.6 M188.7,18.4c0,3.2-0.9,6-2.1,7
	c-0.6,0.5-1.4,0.8-2.2,0.8c-1.1,0.1-2.2-0.5-2.8-1.4c-0.9-1.7-1.3-3.6-1.3-5.5c0-2.9,0.8-5.2,2.1-6.4c0.6-0.5,1.4-0.8,2.2-0.8
	c1.1,0,2.2,0.5,2.9,1.5C188.4,14.9,188.9,16.6,188.7,18.4 M192.6,18.8c0.1-2.7-1.3-5.3-3.8-6.6c-1.2-0.7-2.6-1.1-4-1.1
	c-2.9,0-5.6,1.5-7.1,3.9c-0.8,1.3-1.2,2.8-1.2,4.3c0,2.4,1.1,4.7,3,6.2c1.4,1,3.1,1.6,4.8,1.5c1.1,0,2.2-0.2,3.2-0.6
	c1.1-0.4,2.1-1.1,2.9-2C191.8,22.9,192.6,20.8,192.6,18.8 M174,16.1v-4.3c0-0.3-0.1-0.4-0.4-0.4c-0.6,0-4,0.1-7.4,0.1
	c-2.6,0-4.8,0-6,0h-1.6c-0.3,0-0.4,0.1-0.4,0.4v4c0.1,0.1,0.2,0.1,0.3,0.1c0.2,0,0.3,0,0.5,0c0.6-1.5,1.6-2.7,3-3.5
	c0.6-0.1,1.9-0.1,2.2-0.1c0,0.2,0,1,0.1,1.9c0,1.5,0,2.2,0,5.8c0,3.1,0,4.5-0.1,4.8c-0.1,0.6,0,1-2.5,1.1c-0.1,0.2-0.1,0.3-0.1,0.5
	c0,0.1,0,0.2,0,0.3h0.8c0.8,0,2.6-0.1,3.4-0.1c0.6,0,2.6,0.1,3.9,0.1h0.6c0.1-0.1,0.1-0.3,0.1-0.4c0-0.1,0-0.3-0.1-0.4
	c-0.7,0.1-1.5-0.1-2.2-0.4c-0.1-0.5-0.2-1.1-0.2-1.6c0-2.3,0-3.2,0-4.7c0-2,0-3.3,0-7c0.3,0,1,0,1.6,0c1,0.2,1.9,0.8,2.5,1.6
	c0.5,0.7,0.8,1.5,1.1,2.3c0.1,0,0.2,0,0.4,0C173.7,16.2,173.9,16.2,174,16.1 M155.8,23c0-0.2,0-0.4,0-0.6c-0.1-0.1-0.2-0.1-0.3-0.1
	c-0.2,0-0.3,0-0.5,0c-0.5,1.3-1.3,2.4-2.3,3.2c-0.5,0.2-1,0.3-1.6,0.2h-1.7c-0.5,0-0.9,0-1.4-0.1c-0.3-0.1-0.7-0.6-0.8-0.9
	c-0.2-0.4-0.3-0.9-0.2-1.3v-4.6h0.8c0.4,0,0.9,0.1,1.3,0.3c0.4,0.2,0.7,0.5,1,0.9c0.2,0.6,0.3,1.2,0.4,1.8c0.2,0.1,0.4,0.1,0.6,0.1
	c0.1,0,0.3,0,0.4-0.1c0-0.6-0.1-2.1-0.1-3c0-1.1,0.1-2.5,0.2-3.3c-0.1-0.1-0.3-0.1-0.4-0.1c-0.2,0-0.4,0-0.5,0.1
	c-0.1,0.3-0.3,1.2-0.3,1.2c-0.3,0.5-0.8,0.9-1.4,1.1c-0.4,0.1-0.8,0.2-1.2,0.2h-0.4v-2c0-2,0-2.7,0.1-3.1c0-0.3,0.1-0.5,0.1-0.7
	c0.4,0,0.8-0.1,1.3,0c1.2,0,1.8,0,2,0c0.5,0,1,0.1,1.4,0.4c0.8,0.7,1.5,1.6,2,2.6c0.1,0,0.3,0,0.4,0c0.1,0,0.1,0,0.3-0.1
	c0-1.3-0.1-3-0.1-3.5c0-0.2-0.1-0.3-0.5-0.3c-0.2,0-1,0-1.8,0c-1.2,0-1.7,0-3.5,0c-1,0-3,0-3.9,0c-1.3,0-2.3,0-2.9,0H141
	c-0.1,0.1-0.1,0.2-0.1,0.3c0,0.1,0,0.3,0.1,0.4c0.5,0,1,0.1,1.5,0.2c0.5,0.3,0.7,0.8,0.8,1.4c0,0.4,0.1,1.7,0.1,2.6v4.4
	c0,0.9,0,2.2,0,2.7c0,0.7-0.2,1.4-0.5,2c-0.6,0.2-1.3,0.3-1.9,0.3c-0.1,0.1-0.1,0.3-0.1,0.5c0,0.1,0,0.3,0.1,0.4h0.7
	c0.7,0,3.2-0.1,3.7-0.1c0.5,0,1.5,0,2.8,0c0.7,0,2.7,0.1,6.9,0.1c0.2,0,0.4,0,0.6,0c0.1-0.1,0.1-0.2,0.1-0.3
	C155.8,25.9,155.8,24.7,155.8,23 M137.9,23.7c-0.1-0.3-0.4-0.5-0.7-0.5c0,0-0.1,0-0.1,0c-0.9,1.5-2.5,2.5-4.3,2.5
	c-1.9,0-3.5-1.1-4.3-2.8c-0.4-1.2-0.7-2.5-0.6-3.8c0-1.3,0.2-2.5,0.6-3.7c0.9-2.5,2.3-3.2,3.9-3.2c1.4,0.1,2.6,0.8,3.4,1.9
	c0.5,0.8,0.8,1.7,1.1,2.6c0.2,0,0.3,0.1,0.5,0.1c0.2,0,0.4-0.1,0.5-0.2c0-0.2-0.2-1.9-0.2-2.4c0-0.6,0.2-1.7,0.2-2.1
	c-0.2-0.1-0.5-0.2-0.8-0.2c-0.3,0.3-0.5,0.5-0.7,0.9c-1.3-1.1-3-1.6-4.7-1.5c-2-0.1-3.9,0.7-5.3,2.1c-1.5,1.6-2.4,3.7-2.3,6
	c-0.1,2.5,1,4.8,3,6.3c1.5,1,3.2,1.5,4.9,1.4c2.1,0.1,4.1-0.7,5.4-2.3C137.5,24.4,137.7,24.1,137.9,23.7 M121.4,11.6
	c0-0.1,0-0.2-0.1-0.3h-0.5c-1.1,0-1.7,0-3.6,0c-0.6,0-1.6,0-1.9,0h-0.5c-0.1,0-0.1,0.3-0.1,0.4c0,0.1,0,0.3,0.1,0.4
	c0.7,0.1,1.5,0.3,2.2,0.6c0.4,0.7,0.6,1.4,0.6,2.2c0,0.3,0,0.6,0,1.5v4.4c0,0.3,0,0.6,0,0.9c-0.4-0.4-0.9-1.2-1.7-2.1l-7.1-7.8
	c-0.1-0.1-0.2-0.2-0.3-0.3c-0.2,0-0.5,0-0.6,0c-1.4,0-3.8-0.1-4.2-0.1c0,0.1-0.1,0.2-0.1,0.3c0,0.1,0,0.3,0.1,0.4
	c0.6,0.1,1.2,0.4,1.6,0.8c0.4,0.4,0.8,0.8,1.1,1.3c0.1,0.2,0.1,0.4,0.1,0.7c0,1.1-0.1,2.6-0.1,4.1v4.3c0,0.5,0,1.1-0.1,1.6
	c-0.6,0.6-1.4,0.9-2.2,1.1c0,0.1-0.1,0.2-0.1,0.4c0,0.1,0,0.3,0.1,0.3h0.4c0.4,0,1.4-0.1,2-0.1c0.9,0,1.6,0.1,2.4,0.1h1.3
	c0.1,0,0.1-0.3,0.1-0.4c0-0.1,0-0.2-0.1-0.3c-1-0.1-1.9-0.6-2.5-1.3c-0.2-0.9-0.3-1.7-0.3-2.6c0-0.7,0-1.6,0-2.9c0-1.7,0-3.1,0-3.9
	c0.1,0.1,0.3,0.3,0.4,0.5l9.8,11c0.2,0.1,0.4,0.1,0.6,0.1c0.1,0,0.2,0,0.3,0c0.1-0.3,0.2-0.6,0.2-1c0-0.6,0-1.2,0-1.6v-8.8
	c0-2.6,1.3-3.4,2.7-3.4C121.4,11.9,121.4,11.8,121.4,11.6 M100.5,26.3c0-0.1,0-0.3-0.1-0.4c-0.5,0-1-0.1-1.6-0.2
	c-0.4-0.5-0.6-1-0.7-1.6c0-1,0-3.1,0-5.1v-5.2c0-0.4,0.1-0.8,0.4-1.1c0.6-0.4,1.2-0.5,1.9-0.5c0-0.1,0.1-0.3,0.1-0.4
	c0-0.1,0-0.2-0.1-0.3h-0.6c-0.9,0-3,0.1-3.7,0.1c-0.4,0-2.5-0.1-3.4-0.1h-0.5c-0.1,0.1-0.1,0.2-0.1,0.4c0,0.1,0,0.3,0,0.4
	c0.6,0,1.1,0.1,1.6,0.3c0.5,0.5,0.7,1.1,0.7,1.8c0,0.4,0,1.3,0.1,3.2c0,1.1,0,2.5,0,3.8c0,0.6,0,2-0.1,2.7c0,0.4-0.1,0.9-0.3,1.3
	c-0.3,0.2-0.5,0.6-2.1,0.7c0,0.1-0.1,0.3-0.1,0.4c0,0.2,0,0.3,0,0.4h0.4c0.8,0,3-0.1,4.1-0.1c0.3,0,2.5,0.1,3.2,0.1h0.7
	C100.5,26.5,100.5,26.4,100.5,26.3 M83.6,15.3c0,1.3-0.7,2.5-1.9,3.1c-0.6,0.1-1.2,0.2-1.7,0.2c-0.3,0-0.5,0-0.8,0l0-1.8v-3.9
	c0-0.2,0-0.3,0.1-0.5c0.3-0.1,0.6-0.1,0.9-0.1c1.6,0,2.4,0.1,3,1.1C83.4,13.9,83.6,14.6,83.6,15.3 M89.7,26.3c0-0.2,0-0.3-0.1-0.4
	c-0.5,0-1-0.1-1.4-0.3c-0.1-0.2-0.3-0.3-0.4-0.5c-0.3-0.8-0.6-1.6-0.9-2.4c-0.4-0.9-0.9-1.8-1.6-2.5c-0.5-0.3-1-0.5-1.6-0.7
	c-0.3-0.1-0.6-0.2-0.9-0.3c0.3-0.1,0.6-0.1,0.9-0.1c0.8,0,1.7-0.3,2.3-0.8c0.9-0.7,1.3-1.7,1.3-2.7c0-1.7-1-3.3-2.6-3.8
	c-0.8-0.2-1.7-0.3-2.5-0.2c-1.6,0-3.8,0.1-4.9,0.1c-0.3,0-2.2,0-2.9,0c-0.3,0-1.1,0-1.2,0c-0.1,0.1-0.1,0.3-0.1,0.4
	c0,0.1,0,0.3,0,0.4c0.4,0,1,0.1,1.4,0.2c0.4,0.3,0.7,0.7,0.9,1.1c0.1,1.8,0.2,3.6,0.1,5.4c0,2.2,0,4.7-0.1,5.5
	c0,0.6-0.3,1.1-0.9,1.4c-0.4,0.1-0.8,0.1-1.2,0.1c-0.1,0.1-0.1,0.3-0.1,0.4c0,0.1,0,0.2,0.1,0.3c0.3,0,3.5-0.1,4.2-0.1
	c1.4,0,2.5,0.1,3.7,0.1c0-0.1,0.1-0.2,0.1-0.3c0-0.2,0-0.3-0.1-0.4c-0.4,0-1-0.2-1.2-0.2c-0.6-0.3-0.9-0.9-0.9-1.5l0-4.9
	c0.2,0,0.4,0,0.5,0c0.4,0,0.8,0.1,1.1,0.3c0.7,0.3,1.3,0.9,1.7,1.5c0.7,1.4,1.2,3,1.3,4.5c0.1,0.4,0.2,0.8,0.6,0.9
	c0.2,0,1.3,0.1,2.1,0.1h3C89.6,26.6,89.7,26.5,89.7,26.3 M66.7,15.4c0,1-0.4,2-1.1,2.6c-0.6,0.4-1.4,0.6-2.2,0.6c-0.3,0-0.6,0-0.9,0
	c-0.2,0-0.3,0-0.3-0.1l0-6.2c0.4-0.1,0.8-0.1,1.2-0.1c1.4,0,2.3,0.4,2.7,1.2C66.6,14,66.7,14.7,66.7,15.4 M70.5,15.4
	c0-1.6-0.9-3-2.3-3.7c-1.2-0.4-2.5-0.6-3.8-0.5c-1.6,0-4.2,0.1-5.3,0.1c-0.8,0-2-0.1-2.6-0.1c-0.1,0.1-0.1,0.2-0.1,0.3
	c0,0.1,0,0.3,0.1,0.4c0.4,0.1,1.1,0.2,1.5,0.3c0.3,0.3,0.5,0.7,0.6,1.2c0.1,0.7,0.1,1.7,0.1,3.3c0,4.5,0,6.8-0.1,7.3
	c-0.1,0.7-0.5,1.3-1.2,1.5c-0.4,0.1-0.8,0.2-1.2,0.2c0,0.1,0,0.3,0,0.4c0,0.1,0,0.2,0.1,0.3c0.7,0,2.7-0.1,3.4-0.1
	c1.9,0,3.8,0.1,4.6,0.1h0.5c0.1-0.1,0.1-0.2,0.1-0.3c0-0.1,0-0.3,0-0.4c-0.7,0-1.4-0.2-2-0.7c-0.3-0.3-0.4-0.8-0.4-1.3l-0.1-4.6
	c1.3,0.1,2.6,0.1,3.4,0.1c0.8,0,1.7-0.1,2.5-0.4C69.6,18.5,70.5,17.1,70.5,15.4"/>
<path d="M213.3,35.2c0-0.1-0.1-0.2-0.1-0.3c-0.9,0-2,0.1-2.5,0.1c-1.1,0-2.4-0.1-3-0.1c-0.1,0.1-0.1,0.2-0.1,0.3c0,0.1,0,0.2,0,0.3
	c0.6,0.1,1.5,0.3,1.7,0.6c0.1,0.3,0.2,0.5,0.2,0.8c0,0.3,0,0.5-0.1,0.8c-0.2,0.5-0.6,1.4-1.2,2.5c-1,2-1.6,3.2-1.9,3.7
	c-0.5-0.9-1.8-3.4-2.1-4l-1.2-2.6c-0.1-0.2-0.1-0.4-0.1-0.6c0-0.2,0-0.4,0.1-0.5c0.2-0.4,0.8-0.4,1.7-0.5c0-0.1,0.1-0.2,0.1-0.3
	c0-0.1-0.1-0.1-0.1-0.2h-0.4c-1.4,0-1,0.1-3.4,0.1c-1,0-2.3-0.1-2.5-0.1c-0.1,0.1-0.1,0.2-0.1,0.3c0,0.1,0,0.2,0.1,0.3
	c1.4,0.3,1.8,0.6,2,0.9l3.7,7.3c0.3,0.5,0.5,1,0.7,1.6c0.1,0.8,0.2,1.7,0.2,2.5c0.1,0.6-0.2,1.2-0.7,1.6c-0.6,0.1-1.1,0.2-1.7,0.3
	c-0.1,0.1-0.1,0.2-0.1,0.3c0,0.1,0,0.2,0.1,0.3c1.1,0,2.2,0,2.8,0c0.4,0,1.1,0,2.4,0c0.7,0,1.3,0,1.6,0c0.1-0.1,0.1-0.2,0.1-0.3
	c0-0.1,0-0.2-0.1-0.3c-0.6,0-1.3-0.2-1.8-0.4c-0.4-0.3-0.6-0.8-0.6-1.3l-0.2-3.2c0-0.2,0-0.3,0.1-0.5c0.1-0.2,0.1-0.4,0.2-0.6
	l3.3-6.5c0.3-0.6,0.8-1,1.4-1.4c0.4-0.2,0.9-0.3,1.4-0.4C213.3,35.4,213.3,35.3,213.3,35.2 M196.2,39.6v-4.1c0-0.3-0.1-0.4-0.4-0.4
	c-0.6,0-3.6,0.1-6.9,0.1c-2.6,0-4.4,0-5.6,0h-1.6c-0.3,0-0.4,0.1-0.4,0.4v3.8c0.1,0.1,0.2,0.1,0.3,0.1c0.1,0,0.2,0,0.3,0
	c0.8-1.8,1.2-2.8,2.7-3.5c0.6-0.1,2.9-0.1,3.2-0.1c0,0.2,0,1,0.1,1.9c0,1.5,0,2.3,0,5.9c0,3.1,0,4.7-0.1,5.1c-0.1,0.6,0,1-2.5,1.1
	c-0.1,0.1-0.1,0.2-0.1,0.4c0,0.1,0,0.2,0,0.3h0.8c0.8,0,1.8-0.1,2.6-0.1c0.6,0,1.8,0.1,3.1,0.1h0.6c0.1-0.1,0.1-0.2,0.1-0.3
	c0-0.1,0-0.2-0.1-0.3c-0.7,0.1-1.5-0.1-2.2-0.4c-0.1-0.5-0.2-1.1-0.2-1.6c0-2.3,0-3.4,0-4.9c0-2,0-3.5,0-7.1c0.3,0,1.9,0,2.5,0
	c1,0.2,1.8,0.8,2.4,1.6c0.5,0.7,0.8,1.5,1,2.3c0.1,0,0.2,0,0.3,0C196.1,39.7,196.1,39.6,196.2,39.6 M178.6,50c0-0.1,0-0.2-0.1-0.3
	c-0.5,0-1-0.1-1.6-0.2c-0.4-0.5-0.6-1-0.7-1.6c0-1,0-3.3,0-5.3v-5.4c0-0.4,0.1-0.8,0.4-1.1c0.6-0.4,1.2-0.5,1.9-0.6
	c0-0.1,0.1-0.2,0.1-0.3c0-0.1,0-0.2-0.1-0.3h-0.6c-0.9,0-2.2,0.1-2.9,0.1c-0.4,0-1.7-0.1-2.6-0.1h-0.5c-0.1,0.1-0.1,0.2-0.1,0.3
	c0,0.1,0,0.2,0,0.3c0.6,0,1.1,0.1,1.6,0.3c0.5,0.5,0.7,1.1,0.7,1.8c0,0.4,0,1.5,0.1,3.4c0,1.1,0,2.5,0,3.7c0,0.6,0,2.2-0.1,2.9
	c0,0.4-0.1,0.9-0.3,1.3c-0.3,0.2-0.5,0.6-2.1,0.7c0,0.1-0.1,0.2-0.1,0.3c0,0.2,0,0.2,0,0.3h0.4c0.8,0,2.2-0.1,3.3-0.1
	c0.3,0,1.7,0.1,2.4,0.1h0.7C178.6,50.2,178.6,50.1,178.6,50 M168.2,46.1c0-1.6-0.9-3.1-2.4-3.7c-0.7-0.4-1.5-0.6-2.3-0.8
	c-1.1-0.3-2.1-0.7-3.1-1.2c-0.8-0.5-1.3-1.4-1.2-2.3c0.2-1.5,1.5-2.6,3-2.5c1.1,0,2.2,0.5,2.9,1.5c0.5,0.7,1,1.6,1.3,2.4
	c0.2,0.1,0.5,0,0.7-0.2c-0.1-0.6-0.2-1.3-0.2-1.9c0-0.6,0.1-1.1,0.2-1.6c-0.1-0.2-0.4-0.3-0.6-0.3c-0.3,0.2-0.6,0.5-0.8,0.8
	c-1-0.9-2.3-1.3-3.6-1.3c-2.3-0.2-4.3,1.5-4.4,3.8c0,0.1,0,0.2,0,0.2c0,0.8,0.3,1.6,0.8,2.3c0.5,0.7,1.2,1.2,2.1,1.5
	c0.6,0.3,3.4,1.1,3.7,1.2c1.7,0.6,2.3,1.2,2.3,2.7c0,0.8-0.4,1.6-0.9,2.1c-0.6,0.7-1.5,1-2.3,1c-1.4,0-2.6-0.6-3.6-1.6
	c-0.6-0.9-1.1-1.8-1.4-2.9c-0.1,0-0.2,0-0.3,0c-0.1,0-0.3,0-0.4,0.1c0,0.3,0.1,1.7,0.1,2.1c0,0.6-0.1,1.3-0.2,1.9
	c0.1,0.3,0.4,0.4,0.7,0.4c0.3-0.3,0.7-0.5,1.1-0.7c0.2,0,0.4,0.1,0.5,0.2c1,0.7,2.3,1.1,3.5,1.1C166.1,50.6,168.2,49.1,168.2,46.1
	 M149.5,38.8c0,1.4-1,2.7-2.3,3.2c-0.7,0.1-1.5,0.2-2.2,0.2c-0.3,0-1,0-1.3,0l0-1.9v-4c0-0.3,0.1-0.4,0.1-0.5c0.5-0.1,1-0.1,1.5-0.1
	c2,0,2.9,0.2,3.6,1.2C149.3,37.4,149.5,38.1,149.5,38.8 M153.9,50c0-0.1,0-0.2-0.1-0.3c-0.5,0-1-0.1-1.4-0.3
	c-0.1-0.2-0.3-0.3-0.4-0.5c-0.2-0.9-0.5-1.8-0.9-2.6c-0.4-0.9-0.9-1.8-1.6-2.5c-0.5-0.3-1-0.5-1.5-0.7c-0.3-0.1-0.6-0.2-0.9-0.3
	c0.3-0.1,0.6-0.1,0.9-0.1c0.8,0,1.6-0.3,2.2-0.8c0.9-0.6,1.4-1.6,1.4-2.7c0-1.7-1-3.2-2.6-3.8c-0.8-0.2-1.7-0.3-2.5-0.2
	c-1.6,0-2.8,0.1-3.8,0.1c-0.3,0-1.4,0-2.1,0c-0.3,0-1.1,0-1.3,0c-0.1,0.1-0.1,0.2-0.1,0.3c0,0.1,0,0.2,0,0.3c0.4,0,1,0.1,1.4,0.2
	c0.4,0.3,0.7,0.7,0.9,1.1c0.1,0.7,0.1,2.6,0.1,5.6c0,2.2,0,4.9-0.1,5.7c0,0.6-0.3,1.1-0.9,1.4c-0.4,0.1-0.8,0.1-1.2,0.1
	c-0.1,0.1-0.1,0.2-0.1,0.3c0,0.1,0,0.2,0.1,0.3c0.3,0,2.7-0.1,3.4-0.1c1.4,0,1.7,0.1,2.9,0.1c0-0.1,0.1-0.1,0.1-0.2
	c0-0.1,0-0.2-0.1-0.3c-0.4,0-1-0.2-1.2-0.2c-0.6-0.3-0.9-0.9-0.9-1.5l0-5.3c0.2,0,0.8,0,1,0c0.6,0,1.2,0.1,1.7,0.3
	c0.8,0.4,1.6,1,2.1,1.7c0.7,1.4,1.2,3,1.3,4.6c0.1,0.4,0.2,0.8,0.6,0.9c0.4,0.1,0.8,0.1,1.2,0.1h2.2C153.9,50.2,153.9,50.1,153.9,50
	 M136.2,46.8c0-0.2,0-0.4,0-0.6c-0.1-0.1-0.2-0.1-0.3-0.1c-0.1,0-0.2,0-0.3,0c-0.3,1.3-1.1,2.5-2.2,3.2c-0.6,0.2-1.2,0.3-1.8,0.2
	h-2.4c-0.5,0-0.9,0-1.4-0.1c-0.3-0.1-0.6-0.6-0.8-0.9c-0.2-0.5-0.3-1-0.2-1.5v-4.8h0.7c0.6,0,1.2,0.1,1.8,0.3
	c0.5,0.2,0.9,0.5,1.1,0.9c0.2,0.6,0.3,1.2,0.3,1.8c0.1,0.1,0.2,0.1,0.3,0.1c0.1,0,0.2,0,0.3-0.1c0-0.6-0.1-2.1-0.1-3
	c0-1.1,0.1-2.3,0.2-3.1c-0.1-0.1-0.2-0.1-0.3-0.1c-0.1,0-0.2,0-0.3,0.1c-0.1,0.3-0.2,1.2-0.3,1.3c-0.4,0.5-1,0.9-1.6,1.1
	c-0.6,0.1-1.2,0.2-1.7,0.2h-0.3v-2.1c0-2,0-2.9,0.1-3.2c0-0.3,0.1-0.5,0.1-0.7c0.2,0,0.8,0,1.8,0c1.2,0,2.1,0,2.3,0
	c0.5,0,1,0.1,1.4,0.4c0.9,0.7,1.5,1.6,1.9,2.6c0.1,0,0.2,0,0.3,0c0.1,0,0.1,0,0.3-0.1c0-1.3-0.1-2.7-0.1-3.3c0-0.2-0.1-0.3-0.5-0.3
	c-0.2,0-1,0-1.8,0c-1.2,0-1.7,0-3.5,0c-1,0-2.7,0-3.6,0c-1.3,0-1.5,0-2.1,0h-0.7c-0.1,0.1-0.1,0.2-0.1,0.3c0,0.1,0,0.2,0.1,0.3
	c0.5,0,1,0.1,1.5,0.2c0.3,0.3,0.6,0.3,0.8,1.3c0,0.4,0.1,1.9,0.1,2.9v4.4c0,0.9,0,2.3,0,2.9c0,0.7-0.2,1.4-0.5,2
	c-0.6,0.2-1.3,0.3-1.9,0.3c-0.1,0.1-0.1,0.2-0.1,0.3c0,0.1,0,0.2,0.1,0.3h0.7c0.7,0,2.4-0.1,2.9-0.1c0.5,0,1.2,0,2.5,0
	c0.7,0,2.7,0.1,6.9,0.1c0.2,0,0.4,0,0.6,0c0.1-0.1,0.1-0.2,0.1-0.3C136.2,49.6,136.2,48.6,136.2,46.8 M120.6,35.3
	c0-0.1,0-0.2-0.1-0.2h-0.7c-0.5,0-1.3,0-1.7,0c-1.7,0-2.3-0.1-2.6-0.1h-0.4c0,0.1-0.1,0.2-0.1,0.3c0,0.1,0,0.1,0,0.2
	c0.5,0.1,1,0.2,1.5,0.3c0.3,0.4,0.5,0.8,0.5,1.3c-0.1,0.7-0.3,1.3-0.5,1.9l-3.4,8.4l-4.2-10.6c0-0.5,0.3-0.9,0.7-1.2
	c0.5-0.1,0.9-0.1,1.4-0.2c0-0.1,0.1-0.2,0.1-0.3c0-0.1,0-0.2-0.1-0.2h-0.5c-0.6,0-1.6,0.1-2.8,0.1c-0.5,0-1.4,0-2.4,0h-0.8
	c-0.1,0.2-0.1,0.4,0,0.5c0.6,0.2,1.2,0.4,1.8,0.7c0.6,1.2,1.2,2.5,1.7,3.8l1.7,4.2c1.5,3.5,2.3,5.9,2.4,6.3c0.1,0.1,0,0.1,0.2,0.1
	c0.2,0,0.2,0,0.2-0.1l5.5-13.1c0.2-0.4,0.4-0.8,0.8-1.2c0.5-0.4,1.1-0.6,1.7-0.7C120.5,35.5,120.5,35.4,120.6,35.3 M102,50
	c0-0.1,0-0.2-0.1-0.3c-0.5,0-1-0.1-1.6-0.2c-0.4-0.5-0.6-1-0.7-1.6c0-1,0-3.3,0-5.3v-5.4c0-0.4,0.1-0.8,0.4-1.1
	c0.6-0.4,1.2-0.5,1.9-0.6c0-0.1,0.1-0.2,0.1-0.3c0-0.1,0-0.2-0.1-0.3h-0.6c-0.9,0-2.2,0.1-2.9,0.1c-0.4,0-1.7-0.1-2.6-0.1h-0.5
	c-0.1,0.1-0.1,0.2-0.1,0.3c0,0.1,0,0.2,0,0.3c0.6,0,1.1,0.1,1.6,0.3c0.5,0.5,0.7,1.1,0.7,1.8c0,0.4,0,1.5,0.1,3.4c0,1.1,0,2.5,0,3.7
	c0,0.6,0,2.2-0.1,2.9c0,0.4-0.1,0.9-0.3,1.3c-0.3,0.2-0.5,0.6-2,0.7c0,0.1-0.1,0.2-0.1,0.3c0,0.2,0,0.2,0,0.3h0.4
	c0.8,0,2.2-0.1,3.3-0.1c0.3,0,1.7,0.1,2.4,0.1h0.7C102,50.2,102,50.1,102,50 M92.5,35.3c0-0.1,0-0.2-0.1-0.2h-0.5
	c-1.1,0-1.5,0-3.4,0c-0.7,0-1.6,0-1.9,0h-0.5c-0.1,0-0.1,0.2-0.1,0.3c0,0.1,0,0.2,0.1,0.2c0.7,0.1,1.5,0.3,2.2,0.6
	c0.4,0.6,0.6,1.4,0.6,2.2c0,0.3,0,0.6,0,1.5v6.3c0,0.3,0,0.6,0,0.9c-0.4-0.4-1-1.2-1.8-2.2L79,35.4c-0.1-0.1-0.2-0.2-0.3-0.3
	c-0.2,0-0.4,0-0.5,0c-1.4,0-2.5-0.1-2.9-0.1c0,0.1-0.1,0.1-0.1,0.2c0,0.1,0,0.2,0,0.3c0.6,0.1,1.1,0.3,1.6,0.6
	c0.4,0.4,0.7,0.8,1,1.3c0.1,0.2,0.1,0.4,0.1,0.7c0,1.1-0.1,3.1-0.1,4.6v4.5c0,0.5,0,1.1-0.1,1.6c-0.6,0.6-1.4,0.9-2.2,1.1
	c0,0.1-0.1,0.2-0.1,0.3c0,0.1,0,0.2,0.1,0.2H76c0.4,0,1.4-0.1,2-0.1c0.9,0,1.3,0.1,2.2,0.1h1.3c0.1,0,0.1-0.2,0.1-0.3
	c0-0.1,0-0.2-0.1-0.2c-1-0.1-1.9-0.6-2.5-1.3c-0.2-0.9-0.3-1.8-0.3-2.7c0-0.7,0-1.8,0-3c0-1.7,0-4,0-4.7c0.1,0.1,0.3,0.4,0.5,0.5
	l10,11.7c0.1,0.1,0.1,0.1,0.3,0.1s0,0,0.1,0c0.1-0.3,0.1-0.6,0.1-1c0-0.6,0-1.3,0-1.6v-9c0-2.6,1.3-3.4,2.7-3.4
	C92.5,35.4,92.5,35.3,92.5,35.3 M72.9,35.4c0-0.1,0-0.2-0.1-0.3h-0.6c-0.7,0-1.5,0-2.3,0c-0.8,0-1.8,0-2.4,0h-0.8
	c-0.1,0.1-0.1,0.2-0.1,0.3c0,0.1,0,0.2,0.1,0.3c0.1,0,1.6,0,1.9,0.4c0.4,0.5,0.6,1,0.8,1.6c0.1,0.8,0.2,1.5,0.2,2.3c0,1.8,0,3,0,3.6
	c0,1-0.1,1.9-0.4,2.8c-0.5,1.8-2.3,3-4.1,2.7c-0.9,0-1.7-0.2-2.5-0.5c-1.1-0.5-1.9-1.5-2-2.7l-0.1-6.3l0-2.6c0-0.5,0.6-0.9,0.8-1.2
	c0.5-0.1,1.1-0.2,1.6-0.2c0.1-0.1,0.1-0.2,0.1-0.3c0-0.1-0.1-0.2-0.1-0.3l-0.8,0c-0.8,0-1.8,0-2.5,0c-1,0-1.8,0-2.4,0h-0.9
	c-0.1,0.1-0.1,0.2-0.1,0.3c0,0.1,0,0.2,0.1,0.3c0.7,0.1,1.1,0.1,1.4,0.2c0.3,0.2,0.6,0.5,0.7,0.9c0,0.3,0.1,1,0.1,2.3v5.1
	c0,0.9,0,1.9,0.2,2.8c0.2,1.1,0.9,2,1.8,2.6c1.2,0.7,2.5,1.1,3.9,1c1.3,0,2.5-0.3,3.6-0.9c1.1-0.6,1.8-1.6,2.1-2.8
	c0.2-0.8,0.3-1.7,0.3-2.5v-4.1c0-0.8,0-1.7,0-2.1c0-0.8,0.2-1.6,0.6-2.3c0.6-0.2,1.2-0.3,1.8-0.3C72.9,35.5,72.9,35.4,72.9,35.4"/>
<path d="M21.2,14c-0.1,0-0.2,0.1-0.3,0.2l-0.6,1.4c0,0,0,0,0,0c0,0,0,0-0.1-0.1c0,0-0.1-0.2-0.3-0.6l-0.2-0.5
	c-0.1-0.2-0.1-0.3-0.1-0.3c-0.1-0.1-0.2-0.2-0.3-0.2c0,0,0,0,0,0c0,0,0,0,0,0h0.1c0.1,0,0.2,0,0.3,0c0.1,0,0.3,0,0.4,0h0.1
	c0,0,0,0,0,0c0,0,0,0,0,0c-0.1,0-0.2,0-0.2,0.1c0,0,0,0.1,0,0.1l0.4,1l0.3-0.8c0-0.1,0-0.1,0-0.2c0-0.1-0.1-0.1-0.2-0.2c0,0,0,0,0,0
	c0,0,0,0,0,0h0c0.1,0,0.2,0,0.3,0c0,0,0.1,0,0.2,0L21.2,14C21.2,14,21.2,14,21.2,14C21.2,14,21.2,14,21.2,14z"/>
<path d="M22.9,15.6c-0.5,0-0.8,0-0.8,0h-0.2c-0.1,0-0.2,0-0.4,0h-0.1c0,0,0,0,0,0c0,0,0,0,0,0c0.1,0,0.2,0,0.3-0.1
	c0-0.1,0.1-0.2,0.1-0.3c0-0.1,0-0.2,0-0.2c0-0.1,0-0.3,0-0.5v-0.3c0-0.2-0.1-0.2-0.3-0.2c0,0,0,0,0,0c0,0,0,0,0,0h0.1
	c0.1,0,0.2,0,0.5,0c0.3,0,0.6,0,0.6,0h0.2c0,0,0.1,0,0.1,0l0,0.4c0,0,0,0,0,0c0,0,0,0,0,0c-0.1-0.1-0.1-0.2-0.2-0.3c0,0-0.1,0-0.1,0
	c0,0-0.1,0-0.2,0c-0.1,0-0.2,0-0.2,0s0,0,0,0.1c0,0,0,0.1,0,0.3v0.2H22c0.1,0,0.1,0,0.2,0c0.1,0,0.1-0.1,0.2-0.1c0,0,0-0.1,0-0.1
	c0,0,0,0,0.1,0c0,0,0,0,0,0c0,0.1,0,0.2,0,0.3c0,0.1,0,0.3,0,0.3c0,0,0,0,0,0c0,0,0,0,0,0c0-0.1,0-0.2-0.2-0.3c-0.1,0-0.1,0-0.2,0
	c0,0-0.1,0-0.1,0v0.4c0,0.1,0,0.1,0,0.2c0,0,0,0.1,0.1,0.1c0.1,0,0.1,0,0.2,0h0.2c0.1,0,0.1,0,0.2,0c0.1-0.1,0.2-0.2,0.3-0.3
	c0,0,0,0,0,0c0,0,0,0,0,0L22.9,15.6C23,15.6,23,15.6,22.9,15.6z"/>
<path d="M24.9,14.5C24.9,14.5,24.9,14.5,24.9,14.5c-0.1-0.1-0.1-0.2-0.2-0.2c-0.1-0.1-0.2-0.2-0.3-0.2c0,0-0.1,0-0.2,0v0.7
	c0,0.1,0,0.2,0,0.5c0,0.2,0.1,0.2,0.3,0.2c0,0,0,0,0,0c0,0,0,0,0,0h-0.1c-0.1,0-0.3,0-0.4,0c0,0-0.3,0-0.4,0c0,0,0,0,0,0
	c0,0,0,0,0,0c0.3,0,0.3-0.1,0.3-0.2c0-0.1,0-0.3,0-0.5v-0.6c0-0.1,0-0.1,0-0.2c-0.1,0-0.2,0-0.3,0c-0.2,0.1-0.3,0.2-0.3,0.4
	c0,0,0,0,0,0c0,0,0,0,0,0V14c0,0,0,0,0,0h0.2c0.1,0,0.3,0,0.6,0c0.4,0,0.7,0,0.8,0c0,0,0.1,0,0.1,0c0,0,0,0,0,0.1L24.9,14.5
	C24.9,14.5,24.9,14.5,24.9,14.5z"/>
<path d="M21.1,17C21.1,17,21.1,17,21.1,17c-0.1-0.1-0.1-0.2-0.2-0.2c-0.1-0.1-0.2-0.2-0.3-0.2c0,0-0.1,0-0.2,0v0.7
	c0,0.1,0,0.2,0,0.5c0,0.2,0.1,0.2,0.3,0.2c0,0,0,0,0,0c0,0,0,0,0,0h-0.1c-0.1,0-0.3,0-0.4,0c0,0-0.3,0-0.4,0c0,0,0,0,0,0
	c0,0,0,0,0,0c0.3,0,0.3-0.1,0.3-0.2c0-0.1,0-0.3,0-0.5v-0.6c0-0.1,0-0.1,0-0.2c-0.1,0-0.2,0-0.3,0c-0.2,0.1-0.3,0.2-0.3,0.4
	c0,0,0,0,0,0c0,0,0,0,0,0v-0.4c0,0,0,0,0,0h0.2c0.1,0,0.3,0,0.6,0c0.4,0,0.7,0,0.8,0c0,0,0.1,0,0.1,0c0,0,0,0,0,0.1L21.1,17
	C21.1,17,21.1,17,21.1,17z"/>
<path d="M23,18.2c-0.5,0-0.8,0-0.8,0h-0.2c-0.1,0-0.2,0-0.4,0h-0.1c0,0,0,0,0,0c0,0,0,0,0,0c0.1,0,0.2,0,0.2-0.1c0,0,0-0.1,0.1-0.3
	c0-0.1,0-0.2,0-0.2c0-0.1,0-0.3,0-0.5c0-0.1,0-0.2,0-0.3c0-0.2-0.1-0.2-0.3-0.2c0,0,0,0,0,0c0,0,0,0,0,0h0.1c0.1,0,0.2,0,0.5,0
	c0.3,0,0.6,0,0.6,0h0.2c0,0,0.1,0,0.1,0l0,0.4c0,0,0,0,0,0c0,0,0,0,0,0c-0.1-0.1-0.1-0.2-0.2-0.3c0,0-0.1,0-0.1,0c0,0-0.1,0-0.2,0
	c-0.1,0-0.2,0-0.2,0c0,0,0,0,0,0.1c0,0,0,0.1,0,0.3v0.2h0.1c0.1,0,0.1,0,0.2,0c0.1,0,0.1-0.1,0.2-0.1c0,0,0-0.1,0-0.1c0,0,0,0,0.1,0
	c0,0,0,0,0,0c0,0.1,0,0.2,0,0.3c0,0.1,0,0.3,0,0.3c0,0,0,0,0,0c0,0,0,0,0,0c0-0.1,0-0.2-0.2-0.3c-0.1,0-0.1,0-0.2,0c0,0-0.1,0-0.1,0
	v0.4c0,0.1,0,0.1,0,0.2c0,0,0.1,0.1,0.1,0.1c0.1,0,0.1,0,0.2,0h0.2c0.1,0,0.1,0,0.2,0c0.1-0.1,0.2-0.2,0.3-0.3c0,0,0,0,0,0
	c0,0,0,0,0,0L23,18.2C23.1,18.2,23,18.2,23,18.2z"/>
<path d="M24.1,18.2c-0.1,0-0.3,0-0.4-0.1c0,0,0,0-0.1,0c0,0-0.1,0-0.1,0.1c0,0-0.1,0-0.1,0c0,0,0-0.1,0-0.2c0,0,0-0.2,0-0.3
	c0,0,0,0,0.1,0c0,0,0,0,0,0c0,0.1,0.1,0.2,0.2,0.3c0.1,0.1,0.2,0.2,0.4,0.2c0.1,0,0.2,0,0.3-0.1c0.1,0,0.1-0.1,0.1-0.2
	c0-0.1,0-0.1,0-0.1c0-0.1-0.1-0.1-0.2-0.1c-0.1,0-0.3-0.1-0.4-0.1c-0.1,0-0.2-0.1-0.2-0.2c-0.1-0.1-0.1-0.2-0.1-0.3
	c0-0.3,0.2-0.5,0.5-0.5c0,0,0,0,0,0c0.1,0,0.3,0,0.4,0.1c0,0,0.1-0.1,0.1-0.1c0,0,0.1,0,0.1,0c0,0.1,0,0.1,0,0.2c0,0,0,0.2,0,0.2
	c0,0,0,0-0.1,0c0,0,0,0,0,0c0-0.1-0.1-0.2-0.1-0.3c-0.1-0.1-0.2-0.2-0.3-0.1c-0.1,0-0.3,0.1-0.3,0.2c0,0,0,0,0,0
	c0,0.1,0.1,0.2,0.2,0.2c0.1,0,0.2,0.1,0.2,0.1c0.1,0,0.2,0.1,0.3,0.1c0.2,0.1,0.3,0.2,0.3,0.4C24.7,18,24.4,18.2,24.1,18.2
	C24.1,18.2,24.1,18.2,24.1,18.2z"/>
<path d="M21.8,20.7c-0.5,0-0.8,0-0.8,0h-0.2c-0.1,0-0.2,0-0.4,0h-0.1c0,0,0,0,0,0c0,0,0,0,0,0c0.1,0,0.2,0,0.3-0.1
	c0-0.1,0.1-0.2,0.1-0.3c0-0.1,0-0.2,0-0.2c0-0.1,0-0.3,0-0.5v-0.3c0-0.2-0.1-0.2-0.3-0.2c0,0,0,0,0,0c0,0,0,0,0,0h0.1
	c0.1,0,0.2,0,0.5,0c0.3,0,0.6,0,0.6,0h0.2c0,0,0.1,0,0.1,0l0,0.4c0,0,0,0,0,0c0,0,0,0,0,0c-0.1-0.1-0.1-0.2-0.2-0.3c0,0-0.1,0-0.1,0
	c0,0-0.1,0-0.2,0c-0.1,0-0.2,0-0.2,0c0,0,0,0,0,0.1c0,0,0,0.1,0,0.3v0.2h0.1c0.1,0,0.1,0,0.2,0c0.1,0,0.1-0.1,0.2-0.1
	c0,0,0-0.1,0-0.1c0,0,0,0,0.1,0c0,0,0,0,0,0c0,0.1,0,0.2,0,0.3c0,0.1,0,0.3,0,0.3c0,0,0,0,0,0c0,0,0,0,0,0c0-0.1,0-0.2-0.2-0.3
	c-0.1,0-0.1,0-0.2,0c0,0-0.1,0-0.1,0v0.4c0,0.1,0,0.1,0,0.2c0,0,0,0.1,0.1,0.1c0.1,0,0.1,0,0.2,0h0.2c0.1,0,0.1,0,0.2,0
	c0.1-0.1,0.2-0.2,0.3-0.3c0,0,0,0,0,0c0,0,0,0,0,0L21.8,20.7C21.8,20.7,21.8,20.7,21.8,20.7z"/>
<path d="M24.1,19.2c-0.2,0-0.3,0.1-0.3,0.4v0.8c0,0,0,0.3,0,0.4c0,0,0,0-0.1,0c0,0,0,0,0,0l-1.2-1.2l0,0.3v0.5c0,0,0,0.1,0,0.2
	c0,0.1,0,0.1,0.1,0.2c0.1,0,0.1,0.1,0.2,0.1c0,0,0,0,0,0c0,0,0,0,0,0h-0.1c-0.1,0-0.2,0-0.3,0c-0.1,0-0.2,0-0.2,0h-0.1c0,0,0,0,0,0
	c0,0,0,0,0,0c0.1,0,0.2,0,0.3-0.1c0-0.1,0-0.1,0-0.2v-0.6c0-0.1,0-0.1,0-0.2c0-0.1,0-0.1-0.1-0.2c0,0-0.1-0.1-0.1-0.1
	c-0.1,0-0.1-0.1-0.2-0.1c0,0,0,0,0,0c0,0,0,0,0,0h0c0,0,0.2,0,0.3,0h0.1c0,0,0,0,0,0l0.9,0.9c0.1,0.1,0.1,0.2,0.2,0.2v-0.7
	c0-0.1,0-0.1,0-0.2c0-0.1,0-0.1,0-0.2c0,0-0.2-0.1-0.3-0.1c0,0,0,0,0,0c0,0,0,0,0,0h0c0.1,0,0.2,0,0.3,0
	C23.9,19.1,24,19.1,24.1,19.2L24.1,19.2C24.1,19.1,24.1,19.1,24.1,19.2C24.2,19.1,24.2,19.2,24.1,19.2z"/>
<path d="M29.5,14c-0.2,0-0.3,0.1-0.3,0.4v0.8c0,0,0,0.3,0,0.4c0,0,0,0-0.1,0c0,0,0,0,0,0L28,14.4l0,0.3v0.5c0,0,0,0.1,0,0.2
	c0,0.1,0,0.1,0.1,0.2c0.1,0,0.1,0.1,0.2,0.1c0,0,0,0,0,0c0,0,0,0,0,0h-0.1c-0.1,0-0.2,0-0.3,0c-0.1,0-0.2,0-0.2,0h-0.1c0,0,0,0,0,0
	c0,0,0,0,0,0c0.1,0,0.2,0,0.3-0.1c0-0.1,0-0.1,0-0.2v-0.6c0-0.1,0-0.1,0-0.2c0-0.1,0-0.1-0.1-0.2c0,0-0.1-0.1-0.1-0.1
	c-0.1,0-0.1-0.1-0.2-0.1c0,0,0,0,0,0c0,0,0,0,0,0h0c0,0,0.2,0,0.3,0H28c0,0,0,0,0.1,0l0.9,0.9c0.1,0.1,0.1,0.2,0.2,0.2v-0.7
	c0-0.1,0-0.1,0-0.2c0-0.1,0-0.1,0-0.2c0,0-0.2-0.1-0.3-0.1c0,0,0,0,0,0c0,0,0,0,0,0h0c0.1,0,0.2,0,0.3,0C29.3,14,29.4,14,29.5,14
	L29.5,14C29.5,14,29.6,14,29.5,14C29.6,14,29.5,14,29.5,14z"/>
<path d="M31.2,15.4c-0.3,0.3-0.8,0.3-1.2,0c0,0,0,0,0,0c-0.2-0.2-0.3-0.4-0.2-0.6c0-0.2,0.1-0.5,0.2-0.6c0.2-0.2,0.4-0.2,0.6-0.2
	c0.2,0,0.3,0,0.4,0.1c0.3,0.2,0.4,0.4,0.4,0.7C31.5,15,31.4,15.2,31.2,15.4z M31,14.2c-0.1-0.1-0.2-0.2-0.3-0.2
	c-0.1,0-0.2,0.1-0.3,0.2c-0.1,0.2-0.2,0.4-0.2,0.6c0,0.2,0,0.4,0.1,0.6c0.1,0.1,0.2,0.2,0.3,0.2c0.2,0,0.3-0.1,0.4-0.2
	c0.1-0.2,0.1-0.3,0.1-0.5C31.1,14.6,31.1,14.4,31,14.2L31,14.2z"/>
<path d="M33.6,14c-0.1,0-0.2,0.1-0.3,0.2l-0.6,1.4c0,0,0,0,0,0c0,0,0,0-0.1-0.1s-0.1-0.2-0.3-0.6l-0.2-0.5C32,14.3,32,14.2,32,14.2
	c-0.1-0.1-0.2-0.2-0.3-0.2c0,0,0,0,0,0c0,0,0,0,0,0h0.1c0.1,0,0.2,0,0.3,0c0.1,0,0.3,0,0.4,0h0.1c0,0,0,0,0,0c0,0,0,0,0,0
	c-0.1,0-0.2,0-0.2,0.1c0,0,0,0.1,0,0.1l0.4,1l0.3-0.8c0-0.1,0-0.1,0-0.2c0-0.1-0.1-0.1-0.2-0.2c0,0,0,0,0,0c0,0,0,0,0,0h0
	c0.1,0,0.2,0,0.3,0c0,0,0.1,0,0.2,0L33.6,14C33.6,14,33.6,14,33.6,14L33.6,14z"/>
<path d="M29,17C29,17,29,17,29,17c-0.1-0.1-0.1-0.2-0.2-0.2c-0.1-0.1-0.2-0.2-0.3-0.2c0,0-0.1,0-0.2,0v0.7c0,0.1,0,0.2,0,0.5
	c0,0.2,0.1,0.2,0.3,0.2c0,0,0,0,0,0c0,0,0,0,0,0h-0.1c-0.1,0-0.3,0-0.4,0c0,0-0.3,0-0.4,0c0,0,0,0,0,0c0,0,0,0,0,0
	c0.3,0,0.3-0.1,0.3-0.2c0-0.1,0-0.3,0-0.5v-0.6c0-0.1,0-0.1,0-0.2c-0.1,0-0.2,0-0.3,0c-0.2,0.1-0.3,0.2-0.3,0.4c0,0,0,0,0,0
	c0,0,0,0,0,0v-0.4c0,0,0,0,0,0h0.2c0.1,0,0.3,0,0.6,0c0.4,0,0.7,0,0.8,0c0,0,0.1,0,0.1,0s0,0,0,0.1L29,17C29,17,29,17,29,17z"/>
<path d="M31,18.2h-0.1c-0.1,0-0.2,0-0.3,0c-0.2,0-0.4,0-0.4,0c0,0,0,0,0,0c0,0,0,0,0,0c0.2,0,0.2,0,0.2-0.1c0-0.1,0-0.1,0-0.2
	c0-0.1-0.1-0.2-0.1-0.2c0,0,0,0,0,0h-0.5c-0.1,0.1-0.1,0.2-0.1,0.3c0,0,0,0.1,0,0.1c0,0.1,0,0.1,0.2,0.1c0,0,0,0,0,0c0,0,0,0,0,0h0
	c-0.1,0-0.2,0-0.3,0c-0.1,0-0.3,0-0.4,0c0,0,0,0,0,0c0,0,0,0,0,0c0.1,0,0.2-0.1,0.2-0.1c0.1-0.1,0.2-0.3,0.2-0.4
	c0.1-0.2,0.2-0.5,0.3-0.6c0.1-0.1,0.1-0.2,0.1-0.2c0-0.1,0.1-0.1,0.1-0.2c0,0,0.1,0,0.1,0c0,0,0,0,0,0c0,0,0,0.1,0,0.1
	c0.1,0.2,0.2,0.4,0.3,0.7c0.1,0.1,0.1,0.2,0.2,0.4c0,0.1,0.1,0.2,0.1,0.2C30.8,18.1,30.9,18.1,31,18.2C31,18.1,31,18.1,31,18.2
	C31,18.1,31,18.1,31,18.2z M29.9,16.9L29.9,16.9c0,0.1-0.1,0.2-0.1,0.3c-0.1,0.2-0.1,0.3-0.1,0.3h0.5C30.1,17.3,30,17,29.9,16.9
	L29.9,16.9z"/>
<path d="M33.5,18.2l-0.7,0h-0.2c0,0,0,0,0,0c0,0,0,0,0,0c0.1,0,0.1,0,0.2,0c0.1,0,0.1-0.1,0.1-0.2v-1.2l0,0l-0.3,0.8
	c0,0.1-0.1,0.2-0.1,0.3c-0.1,0.1-0.1,0.2-0.1,0.4c0,0,0,0-0.1,0c0,0,0,0,0,0c0-0.1-0.1-0.2-0.1-0.2l-0.5-1.2h0V17l0,0.8
	c0,0.2,0.1,0.3,0.3,0.3c0,0,0,0,0,0c0,0,0,0,0,0c0,0,0,0-0.1,0s-0.1,0-0.3,0c0,0-0.2,0-0.2,0h-0.1c0,0,0,0,0,0c0,0,0,0,0,0
	c0.1,0,0.2,0,0.2-0.1c0,0,0.1-0.1,0.1-0.3v-0.8c0-0.1,0-0.2-0.1-0.2c-0.1,0-0.1,0-0.2,0c0,0,0,0,0,0c0,0,0,0,0,0c0.1,0,0.2,0,0.3,0
	h0.4c0,0,0,0,0,0l0.5,1.1l0.1-0.2c0.1-0.2,0.2-0.4,0.3-0.7l0.1-0.2l0.6,0c0,0,0,0,0,0c0,0,0,0,0,0c-0.1,0-0.2,0-0.2,0.1
	c0,0,0,0.1,0,0.2v0.8c0,0.3,0.1,0.3,0.1,0.4C33.4,18.1,33.5,18.1,33.5,18.2C33.5,18.1,33.5,18.1,33.5,18.2
	C33.5,18.1,33.5,18.1,33.5,18.2z"/>
<path d="M29,19.6C29,19.6,28.9,19.6,29,19.6c-0.1-0.1-0.1-0.2-0.2-0.2c-0.1-0.1-0.2-0.2-0.3-0.2c0,0-0.1,0-0.2,0v0.7
	c0,0.1,0,0.2,0,0.5c0,0.2,0.1,0.2,0.3,0.2c0,0,0,0,0,0c0,0,0,0,0,0h-0.1c-0.1,0-0.3,0-0.4,0c0,0-0.3,0-0.4,0c0,0,0,0,0,0
	c0,0,0,0,0,0c0.3,0,0.3-0.1,0.3-0.2c0-0.1,0-0.3,0-0.5v-0.6c0-0.1,0-0.1,0-0.2c-0.1,0-0.2,0-0.3,0c-0.2,0.1-0.3,0.2-0.3,0.4
	c0,0,0,0,0,0c0,0,0,0,0,0v-0.4c0,0,0,0,0,0h0.2c0.1,0,0.3,0,0.6,0c0.4,0,0.7,0,0.8,0c0,0,0.1,0,0.1,0s0,0,0,0.1L29,19.6
	C29,19.6,29,19.6,29,19.6z"/>
<path d="M31,19.2c-0.1,0-0.2,0.1-0.3,0.2l-0.6,1.4c0,0,0,0,0,0c0,0,0,0-0.1-0.1c0,0-0.1-0.2-0.3-0.6l-0.2-0.5
	c-0.1-0.2-0.1-0.3-0.1-0.3c-0.1-0.1-0.2-0.2-0.3-0.2c0,0,0,0,0,0c0,0,0,0,0,0h0.1c0.1,0,0.2,0,0.3,0s0.3,0,0.4,0H30c0,0,0,0,0,0
	c0,0,0,0,0,0c-0.1,0-0.2,0-0.2,0.1c0,0,0,0.1,0,0.1l0.4,1l0.3-0.8c0-0.1,0-0.1,0-0.2c0-0.1-0.1-0.1-0.2-0.2c0,0,0,0,0,0c0,0,0,0,0,0
	h0c0.1,0,0.2,0,0.3,0c0,0,0.1,0,0.2,0L31,19.2C31,19.1,31,19.1,31,19.2C31,19.2,31,19.2,31,19.2z"/>
<path d="M33.5,20.7l-0.7,0h-0.2c0,0,0,0,0,0c0,0,0,0,0,0c0.1,0,0.1,0,0.2,0c0.1,0,0.1-0.1,0.1-0.2v-1c0,0,0-0.2,0-0.2h0L32.6,20
	c0,0.1-0.1,0.2-0.1,0.3c-0.1,0.2-0.1,0.3-0.1,0.4c0,0,0,0-0.1,0s0,0,0,0c0-0.1-0.1-0.2-0.1-0.2l-0.5-1.2h0v0.3l0,0.8
	c0,0.2,0.1,0.3,0.3,0.3c0,0,0,0,0,0c0,0,0,0,0,0c0,0,0,0-0.1,0s-0.1,0-0.3,0c-0.1,0-0.2,0-0.2,0h-0.1c0,0,0,0,0,0c0,0,0,0,0,0
	c0.1,0,0.2,0,0.2-0.1c0.1-0.1,0.1-0.2,0.1-0.3v-0.4v-0.5c0-0.1,0-0.2-0.1-0.2c-0.1,0-0.1,0-0.2,0c0,0,0,0,0,0c0,0,0,0,0,0
	c0.1,0,0.2,0,0.3,0h0.4c0,0,0,0,0,0l0.5,1.1l0.1-0.2c0.1-0.3,0.2-0.5,0.3-0.7c0-0.1,0.1-0.1,0.1-0.2l0.6,0c0,0,0,0,0,0c0,0,0,0,0,0
	c-0.1,0-0.2,0-0.2,0.1c0,0,0,0.1,0,0.2v0.8c0,0.3,0.1,0.3,0.1,0.4C33.4,20.6,33.5,20.6,33.5,20.7C33.5,20.7,33.5,20.7,33.5,20.7
	C33.6,20.7,33.5,20.7,33.5,20.7z"/>
<path d="M49.2,10.5l-0.1-0.8l-0.7,0.2c-1.8,0.5-3.7,0.8-5.6,0.8c-6.5,0-12.6-3.4-16-8.9l-0.5-0.9l-0.5,0.9c-3.4,5.6-9.5,9-16,8.9
	c-1.9,0-3.8-0.3-5.6-0.8L3.4,9.7l-0.1,0.8c-0.5,5.4-0.1,10.8,1,16c1.2,5.5,3.2,10.9,6,15.8c1.5,2.6,3.1,5.1,5,7.4
	c3.1,3.9,6.7,7.4,10.7,10.4l0.4,0.3l0.4-0.3c4-3,7.6-6.4,10.7-10.3c1.9-2.3,3.5-4.8,5-7.4c2.7-4.7,4.6-9.8,5.8-15.1l0.2-0.8
	C49.4,21.2,49.7,15.8,49.2,10.5z M35.9,14.7h0.9v1.8h-0.9V14.7z M35.9,19.4h0.9v1.8h-0.9V19.4z M26.5,12.8c0.4-0.5,1-0.7,1.6-0.7
	l1.8,0.3l2.4,0.3c0.7,0,1.4-0.1,2-0.3v9.9c-0.7,0.2-1.4,0.3-2,0.3L30,22.2l-1.9-0.3c-0.6,0-1.1,0.1-1.6,0.5V12.8z M18.4,12.4
	c0.6,0.3,1.3,0.4,2,0.3l2.4-0.3l1.8-0.3c0.6-0.1,1.2,0.2,1.6,0.7v9.7c-0.5-0.4-1-0.5-1.6-0.5l-1.9,0.3l-2.3,0.3c-1.7,0-2-0.4-2-0.4
	C18.4,22.1,18.4,13,18.4,12.4L18.4,12.4z M17.1,13.6c0.2,0,0.7-0.1,1-0.2v8.9c0.1,0.2,0.5,0.7,2.4,0.7l2.3-0.3l1.8-0.3
	c0.6-0.1,1.2,0.2,1.6,0.7l0.1,0h0.3l0.1,0c0.4-0.5,1-0.7,1.6-0.7l1.8,0.3l2.4,0.3c1.9,0,2.3-0.5,2.4-0.5l0-9l0.9,0.2v9.8
	c-1.1,0.2-2.3,0.2-3.4,0.3c-1.5,0-3-0.1-4.5-0.3l-0.2,0v0.7c-0.4,0.1-0.7,0.2-1.1,0.2c-0.4,0-0.7-0.1-1.1-0.2v-0.7l-0.2,0
	c-1.5,0.2-3,0.3-4.5,0.3c-1.1,0-2.3-0.1-3.4-0.3L17.1,13.6z M15.8,14.7h0.9v1.8h-0.9V14.7z M15.8,19.4h0.9v1.8h-0.9V19.4z
	 M26.3,58.8c-3.7-2.8-7.1-6.1-10-9.8c0,0,0,0,0,0l10.1-9.8l10.1,9.8c0,0,0,0,0,0.1C33.4,52.7,30,55.9,26.3,58.8L26.3,58.8z M46.9,27
	c-1.1,5.1-3,10-5.6,14.6l-15-14.4l-15,14.4c-2.7-4.7-4.6-9.9-5.7-15.2H47L46.9,27z"/>
</svg>
