<?xml version="1.0" encoding="utf-8"?>
<!-- Generator: Adobe Illustrator 24.3.0, SVG Export Plug-In . SVG Version: 6.00 Build 0)  -->
<svg version="1.1" id="Layer_1" xmlns="http://www.w3.org/2000/svg" xmlns:xlink="http://www.w3.org/1999/xlink" x="0px" y="0px"
	 viewBox="0 0 185 45" style="enable-background:new 0 0 185 45;" xml:space="preserve">
<g transform="translate(-.32514 -.073983)">
	<g transform="matrix(.45 0 0 .45 .97179 -144.59)">
		<g>
			<path d="M158.6,404.5h245.9"/>
			<path d="M404.5,405.2H158.6c-0.4,0-0.7-0.3-0.7-0.7s0.3-0.7,0.7-0.7h245.9c0.4,0,0.7,0.3,0.7,0.7S405,405.2,404.5,405.2z"/>
		</g>
	</g>
	<g transform="matrix(.45 0 0 .45 .97179 -144.59)">
		<g>
			<path d="M60.1,335.1c-3.4,3.1-19.4,19.2-23,23L67.7,391l12.4,13.4c4.3,4.1,9.3,8.5,14.7,10.6c3.2,1.3,5.8,2.1,7.1,2.1
				c0.7,0,1.4,0.2,1.4,0.9c0,0.8-0.5,1.1-2.6,1.1h-9.3c-3.2,0-5.1,0-7.4-0.2c-5.8-0.5-8.6-2.9-13.2-6.9l-41.9-46.3l-1.2-1.6h-0.5
				v9.7c0,9.8,0,18.2,0.3,22.8c0.2,3,1.2,5.3,3.8,5.8c1.5,0.2,3.8,0.4,5.2,0.4c0.9,0,1.4,0.3,1.4,0.9c0,0.7-0.9,1.1-2,1.1
				c-6,0-12.7-0.3-15.4-0.3c-2.5,0-9.2,0.3-13.4,0.3c-1.4,0-2.1-0.3-2.1-1.1c0-0.5,0.4-0.9,1.7-0.9c1.6,0,2.9-0.2,3.8-0.4
				c2.1-0.4,2.7-2.8,3.1-5.9c0.5-4.5,0.5-12.9,0.5-22.7V355c0-16.2,0-19.2-0.2-22.6c-0.2-3.6-1.1-5.3-4.6-6.1
				c-0.8-0.2-2.7-0.3-4.2-0.3c-1.2,0-1.8-0.2-1.8-1c0-0.7,0.7-1,2.3-1c5.7,0,12.4,0.3,14.9,0.3c2.6,0,9.3-0.3,12.9-0.3
				c1.5,0,2.2,0.2,2.2,1c0,0.7-0.6,1-1.5,1c-1.1,0-1.7,0.1-3,0.3c-2.9,0.5-3.7,2.3-3.9,6.1c-0.2,3.4-0.2,6.4-0.2,22.6v4.7h0.5
				c3.6-3.9,19.2-19.8,22.3-23.5c3-3.5,5.3-6.2,5.3-8c0-1.2-0.4-1.9-1.5-2.1c-1-0.2-1.4-0.4-1.4-1.1c0-0.7,0.5-1,1.7-1
				c2.2,0,8.1,0.3,11,0.3l20.4,0c2.6,0,9.3-0.3,13.1-0.3c1.6,0,2.3,0.2,2.3,1c0,0.7-0.6,1-1.7,1c-1.2,0-1.8,0.1-3.1,0.3
				c-2.9,0.5-3.7,2.3-3.9,6.1c-0.2,3.4-0.2,6.4-0.2,22.5v14.9c0,15.4,3.1,21.9,8.3,26.2c4.8,3.9,9.7,4.4,13.3,4.4
				c4.7,0,10.4-1.5,14.7-5.7c5.9-5.8,6.2-15.4,6.2-26.4v-13.3c0-16.2,0-19.1-0.2-22.5c-0.2-3.6-1.1-5.3-4.6-6.1
				c-0.9-0.2-2.7-0.3-3.8-0.3c-1.2,0-1.8-0.2-1.8-1c0-0.7,0.8-1,2.2-1c5.4,0,12.1,0.3,12.2,0.3c1.3,0,8-0.3,12.1-0.3
				c1.5,0,2.2,0.2,2.2,1c0,0.7-0.6,1-1.9,1c-1.2,0-1.8,0.1-3.1,0.3c-2.9,0.5-3.7,2.3-3.9,6.1c-0.2,3.4-0.2,6.4-0.2,22.5v11.4
				c0,11.8-1.2,24.4-10.1,32c-7.6,6.5-15.2,7.7-22.1,7.7c-5.6,0-15.8-0.3-23.6-7.3c-5.4-4.9-9.5-12.8-9.5-28.2v-15.5
				c0-16.2,0-19.1-0.2-22.5c-0.2-3.6-1.3-6.1-4.6-6.1C70.4,326.3,65.6,330.1,60.1,335.1"/>
		</g>
	</g>
	<g>
		<path d="M108.1,1.1c-0.1,0-0.1,0.1-0.1,0.3l-0.1,5.8c0,0.9,0,1.1-0.3,1.2c-0.1,0-0.3,0-0.4,0c-0.1,0-0.2,0-0.2,0.1
			c0,0.1,0.1,0.1,0.2,0.1c0.5,0,1,0,1.1,0c0.2,0,0.6,0,1.2,0c0.1,0,0.2,0,0.2-0.1c0-0.1-0.1-0.1-0.2-0.1c-0.2,0-0.3,0-0.5-0.1
			c-0.2-0.1-0.3-0.3-0.3-1.1v0l-0.1-4.1l0,0c0.2,0.2,1.3,1.4,2.3,2.5c1,1,2.3,2.3,2.9,2.9c0.1,0.1,0.2,0.2,0.3,0.2
			c0.1,0,0.1-0.1,0.1-0.3l0.1-6.2c0-0.5,0.1-0.8,0.4-0.8c0.1,0,0.2,0,0.3,0c0.1,0,0.2,0,0.2-0.1c0-0.1-0.1-0.1-0.2-0.1
			c-0.5,0-0.9,0-1,0c-0.2,0-0.7,0-1.2,0c-0.1,0-0.3,0-0.3,0.1c0,0.1,0,0.1,0.2,0.1c0.1,0,0.4,0,0.5,0.1c0.2,0.1,0.3,0.3,0.3,0.9
			l0.1,4.4h0c-0.2-0.2-1.5-1.6-2.2-2.2c-1.4-1.4-2.9-3-3-3.1C108.3,1.2,108.2,1.1,108.1,1.1L108.1,1.1z M73.5,1.1
			c-0.1,0-0.1,0.1-0.1,0.2c0,0.1-0.2,1-0.2,1.1c0,0.1,0,0.2,0.1,0.2c0.1,0,0.1,0,0.1-0.1c0-0.1,0.1-0.2,0.2-0.3
			c0.1-0.2,0.4-0.3,0.9-0.3l1.5,0v4c0,0.9,0,1.7,0,2.1c0,0.3-0.1,0.5-0.3,0.5c-0.1,0-0.2,0-0.4,0c-0.1,0-0.2,0-0.2,0.1
			c0,0.1,0.1,0.1,0.2,0.1c0.4,0,1,0,1.2,0c0.3,0,0.9,0,1.5,0c0.1,0,0.2,0,0.2-0.1c0,0,0-0.1-0.2-0.1c-0.1,0-0.4,0-0.5,0
			c-0.3,0-0.4-0.3-0.4-0.5c0-0.4,0-1.2,0-2.1v-4l1.2,0c0.9,0,1.1,0.3,1.2,0.6l0,0.1c0,0.1,0,0.2,0.1,0.2c0.1,0,0.1-0.1,0.1-0.2
			c0-0.3,0-0.9,0-1.1c0-0.1,0-0.2-0.1-0.2c-0.1,0-0.3,0.1-0.9,0.1h-3.9c-0.3,0-0.7,0-1,0C73.7,1.2,73.6,1.1,73.5,1.1L73.5,1.1z
			 M143.8,1.1c-1.4,0-2.3,0.8-2.3,1.9c0,0.8,0.4,1.5,1.5,2.3l0.5,0.4c0.8,0.6,1,1.1,1,1.6c0,0.5-0.4,1.1-1.3,1.1
			c-0.6,0-1.2-0.3-1.4-1c0-0.2-0.1-0.4-0.1-0.5c0-0.1,0-0.2-0.1-0.2c-0.1,0-0.1,0.1-0.1,0.3c0,0.2,0,0.7,0,1.3c0,0.2,0,0.2,0.1,0.3
			c0,0,0,0,0,0c-0.1,0-0.2,0-0.3,0c-0.1,0-0.5-0.1-1.1-0.7c-0.6-0.6-1.3-1.5-2.1-2.6c1-0.8,1.3-1.5,1.3-2.2c0-0.7-0.4-1.2-0.7-1.3
			c-0.5-0.4-1.2-0.4-1.8-0.4c-0.3,0-1,0-1.4,0c-0.2,0-0.8,0-1.3,0c-0.1,0-0.2,0-0.2,0.1c0,0.1,0.1,0.1,0.2,0.1c0.1,0,0.3,0,0.4,0
			c0.3,0.1,0.4,0.2,0.4,0.6c0,0.3,0,0.6,0,2.1v1.7c0,0.9,0,1.7,0,2.1c0,0.3-0.1,0.5-0.3,0.5c-0.1,0-0.2,0-0.4,0
			c-0.1,0-0.2,0-0.2,0.1c0,0.1,0.1,0.1,0.2,0.1c0.4,0,1,0,1.2,0c0.1,0,0.9,0,1.4,0c0.1,0,0.2,0,0.2-0.1c0,0,0-0.1-0.1-0.1
			c-0.1,0-0.3,0-0.5,0c-0.3,0-0.4-0.3-0.4-0.5c0-0.4-0.1-1.2-0.1-2.1V5.7c0-0.1,0-0.1,0.1-0.1l0.9,0c0.1,0,0.1,0,0.2,0.1
			c0.1,0.1,0.6,0.8,1,1.4c0.5,0.8,0.9,1.2,1.3,1.4c0.3,0.1,0.5,0.2,1,0.2h0.9c0.1,0,0.2,0,0.2-0.1c0,0,0,0,0,0c0,0,0,0,0,0
			c0.4,0.2,0.9,0.3,1.4,0.3c0.5,0,1.1-0.1,1.6-0.4c0.7-0.5,0.9-1.1,0.9-1.7c0-0.9-0.4-1.6-1.6-2.5L143.6,4c-0.8-0.6-1-1-1-1.4
			c0-0.6,0.4-1,1.2-1c0.6,0,0.9,0.3,1.1,0.5c0.2,0.3,0.3,0.6,0.3,0.6c0,0.1,0,0.2,0.1,0.2c0.1,0,0.1-0.1,0.1-0.3c0-0.8,0-1,0-1.2
			c0-0.1,0-0.1-0.1-0.1C144.9,1.2,144.5,1.1,143.8,1.1L143.8,1.1z M150.9,1.1c-0.1,0-0.1,0.1-0.1,0.2c0,0.1-0.2,1-0.2,1.1
			c0,0.1,0,0.2,0.1,0.2c0.1,0,0.1,0,0.1-0.1c0-0.1,0.1-0.2,0.2-0.3c0.1-0.2,0.4-0.3,0.9-0.3l1.5,0v4c0,0.9,0,1.7,0,2.1
			c0,0.3-0.1,0.5-0.3,0.5c-0.1,0-0.2,0-0.4,0c-0.1,0-0.2,0-0.2,0.1c0,0.1,0.1,0.1,0.2,0.1c0.4,0,1,0,1.2,0c0.3,0,0.9,0,1.5,0
			c0.1,0,0.2,0,0.2-0.1c0,0,0-0.1-0.2-0.1c-0.1,0-0.4,0-0.5,0c-0.3,0-0.4-0.3-0.4-0.5c0-0.4,0-1.2,0-2.1v-4l1.2,0
			c0.9,0,1.1,0.3,1.2,0.6l0,0.1c0,0.1,0,0.2,0.1,0.2c0.1,0,0.1-0.1,0.1-0.2c0-0.2,0-0.8,0-1c0.1,0,0.1,0,0.2,0.1
			c0.2,0.1,0.4,0.4,0.7,0.7c0.3,0.5,1.7,2.7,1.7,2.8c0.1,0.3,0.2,0.5,0.2,1V7c0,0.2,0,0.6,0,1c0,0.3-0.1,0.5-0.3,0.5
			c-0.1,0-0.2,0-0.3,0c-0.1,0-0.2,0-0.2,0.1c0,0.1,0.1,0.1,0.2,0.1c0.4,0,1,0,1.2,0c0.3,0,0.9,0,1.5,0c0.1,0,0.2,0,0.2-0.1
			c0,0,0-0.1-0.2-0.1c-0.1,0-0.4,0-0.5,0c-0.3,0-0.4-0.3-0.4-0.5c0-0.4,0-0.8,0-1V6.2c0-0.3,0-0.6,0.1-1c0.2-0.4,1.6-2.7,1.9-3.1
			c0.2-0.3,0.3-0.4,0.5-0.5c0.1-0.1,0.3-0.1,0.4-0.1c0.1,0,0.2,0,0.2-0.1c0-0.1-0.1-0.1-0.2-0.1c-0.2,0-0.8,0-1,0
			c-0.3,0-0.6,0-0.9,0c-0.1,0-0.2,0-0.2,0.1c0,0.1,0.1,0.1,0.2,0.1c0.2,0,0.2,0.1,0.2,0.2c0,0.1,0,0.3-0.1,0.5
			c-0.1,0.3-1.4,2.5-1.5,2.7c-0.2-0.3-1.5-2.6-1.7-2.9c-0.1-0.1-0.1-0.3-0.1-0.3c0-0.1,0-0.2,0.1-0.2c0.1,0,0.2,0,0.2-0.1
			c0-0.1,0-0.1-0.1-0.1c-0.4,0-0.8,0-1,0c-0.3,0-0.8,0-1,0c0,0,0-0.1-0.1-0.1c-0.1,0-0.3,0.1-0.9,0.1h-3.9c-0.3,0-0.7,0-1,0
			C151.1,1.2,151,1.1,150.9,1.1L150.9,1.1z M171.2,1.1c-2.9,0-4.1,2.2-4.1,3.8c0,1.7,1.1,3.8,4,3.8c2.5,0,4.1-1.8,4.1-4
			C175.2,2.6,173.7,1.1,171.2,1.1z M94.6,1.2c0,0-0.1,0-0.2,0c-0.1,0-0.2,0-0.4,0.1c-0.2,0-2.1,0-2.5,0c-0.3,0-0.9,0-1.4,0
			c-0.1,0-0.2,0-0.2,0.1c0,0.1,0.1,0.1,0.2,0.1c0.1,0,0.3,0,0.4,0C90.9,1.6,90.9,1.7,91,2c0,0.3,0,0.6,0,2.1v1.7c0,0.9,0,1.7,0,2.1
			c0,0.3-0.1,0.5-0.3,0.5c-0.1,0-0.2,0-0.4,0c-0.1,0-0.2,0-0.2,0.1c0,0.1,0.1,0.1,0.2,0.1c0.4,0,1,0,1.2,0c0.6,0,1.2,0.1,2.7,0.1
			c0.4,0,0.5,0,0.5-0.3c0-0.2,0.1-0.9,0.1-1.1c0-0.1,0-0.2-0.1-0.2c-0.1,0-0.1,0-0.1,0.1c-0.1,0.4-0.2,0.6-0.4,0.7
			c-0.3,0.1-0.7,0.1-0.9,0.1c-1,0-1.2-0.1-1.2-0.8c0-0.3,0-1.2,0-1.5V5.1c0-0.1,0-0.1,0.1-0.1c0.2,0,1.2,0,1.4,0
			c0.4,0,0.5,0.2,0.5,0.4c0,0.1,0,0.3,0,0.4c0,0,0,0.1,0.1,0.1c0.1,0,0.1-0.1,0.1-0.2c0-0.1,0-0.5,0-0.7c0-0.5,0.1-0.7,0.1-0.7
			c0-0.1,0-0.1-0.1-0.1c0,0-0.1,0-0.2,0.1c-0.1,0.1-0.2,0.1-0.5,0.1c-0.2,0-1.4,0-1.6,0c-0.1,0-0.1,0-0.1-0.1V1.9
			c0-0.1,0-0.1,0.1-0.1c0.2,0,1.2,0,1.4,0c0.5,0.1,0.6,0.2,0.7,0.4c0,0.1,0.1,0.3,0.1,0.4c0,0.1,0,0.1,0.1,0.1
			c0.1,0,0.1-0.1,0.1-0.1c0-0.1,0-0.5,0-0.6C94.6,1.5,94.7,1.4,94.6,1.2C94.7,1.2,94.7,1.2,94.6,1.2L94.6,1.2z M132.4,1.2
			c0,0-0.1,0-0.2,0c-0.1,0-0.2,0-0.4,0.1c-0.2,0-2.1,0-2.5,0c-0.3,0-0.9,0-1.4,0c-0.1,0-0.2,0-0.2,0c0,0-0.1,0-0.2,0
			c-0.3,0-0.8,0-0.9,0c-0.1,0-0.5,0-1,0c-0.2,0-0.3,0-0.3,0.1c0,0.1,0.1,0.1,0.2,0.1c0.1,0,0.3,0,0.4,0c0.1,0,0.1,0.1,0.1,0.2
			c0,0.1,0,0.2-0.1,0.4c-0.2,0.6-1.5,3.8-1.9,4.9h0l-1.7-4.5c-0.1-0.4-0.2-0.6-0.2-0.8c0-0.1,0-0.2,0.1-0.2c0.1-0.1,0.2-0.1,0.4-0.1
			c0.1,0,0.1,0,0.1-0.1c0-0.1-0.1-0.1-0.2-0.1c-0.5,0-1,0-1.2,0c-0.3,0-0.9,0-1.4,0c-0.1,0-0.3,0-0.3,0.1c0,0.1,0,0.1,0.1,0.1
			c0.1,0,0.2,0,0.4,0c0.4,0.1,0.5,0.2,0.7,0.7l2.5,6c0.2,0.5,0.2,0.6,0.4,0.6c0.1,0,0.2-0.2,0.5-0.7c0.2-0.5,0.7-1.6,1.3-3
			c0.5-1.2,0.8-1.7,1.2-2.7c0.3-0.6,0.4-0.8,0.5-0.9c0.2-0.1,0.4-0.1,0.5-0.1c0.1,0,0.1,0,0.1,0c0,0,0.1,0,0.1,0c0.1,0,0.3,0,0.4,0
			c0.3,0.1,0.4,0.2,0.4,0.6c0,0.3,0,0.6,0,2.1v1.7c0,0.9,0,1.7,0,2.1c0,0.3-0.1,0.5-0.3,0.5c-0.1,0-0.2,0-0.4,0
			c-0.1,0-0.2,0-0.2,0.1c0,0.1,0.1,0.1,0.2,0.1c0.4,0,1,0,1.2,0c0.6,0,1.2,0.1,2.7,0.1c0.4,0,0.5,0,0.5-0.3c0-0.2,0.1-0.9,0.1-1.1
			c0-0.1,0-0.2-0.1-0.2c-0.1,0-0.1,0-0.1,0.1c-0.1,0.4-0.2,0.6-0.4,0.7c-0.3,0.1-0.7,0.1-0.9,0.1c-1,0-1.2-0.1-1.2-0.8
			c0-0.3,0-1.2,0-1.5V5.1c0-0.1,0-0.1,0.1-0.1c0.2,0,1.2,0,1.4,0c0.4,0,0.5,0.2,0.5,0.4c0,0.1,0,0.3,0,0.4c0,0,0,0.1,0.1,0.1
			c0.1,0,0.1-0.1,0.1-0.2c0-0.1,0-0.5,0-0.7c0-0.5,0.1-0.7,0.1-0.7c0-0.1,0-0.1-0.1-0.1c0,0-0.1,0-0.2,0.1c-0.1,0.1-0.2,0.1-0.5,0.1
			c-0.2,0-1.4,0-1.6,0c-0.1,0-0.1,0-0.1-0.1V1.9c0-0.1,0-0.1,0.1-0.1c0.2,0,1.2,0,1.4,0c0.5,0.1,0.6,0.2,0.7,0.4
			c0,0.1,0.1,0.3,0.1,0.4c0,0.1,0,0.1,0.1,0.1s0.1-0.1,0.1-0.1c0-0.1,0-0.5,0-0.6C132.4,1.5,132.4,1.4,132.4,1.2
			C132.4,1.2,132.4,1.2,132.4,1.2L132.4,1.2z M181,1.2c0,0-0.1,0-0.2,0.1c-0.1,0-0.2,0-0.4,0c-0.2,0-2.2,0-2.6,0c-0.3,0-0.9,0-1.4,0
			c-0.1,0-0.2,0-0.2,0.1c0,0.1,0.1,0.1,0.2,0.1c0.1,0,0.3,0,0.4,0c0.3,0.1,0.4,0.2,0.4,0.6c0,0.3,0,0.6,0,2.1v1.7c0,0.9,0,1.7,0,2.1
			c0,0.3-0.1,0.5-0.3,0.5c-0.1,0-0.2,0-0.4,0c-0.1,0-0.1,0-0.1,0.1c0,0.1,0.1,0.1,0.2,0.1c0.4,0,1,0,1.2,0s0.9,0,1.5,0
			c0.1,0,0.2,0,0.2-0.1c0,0,0-0.1-0.2-0.1c-0.1,0-0.4,0-0.5,0c-0.3,0-0.4-0.3-0.4-0.5c0-0.4,0-1.1,0-2.1V5.1c0-0.1,0-0.1,0.1-0.1
			c0.2,0,1.2,0,1.5,0c0.3,0,0.4,0.2,0.5,0.4c0,0.1,0.1,0.2,0.1,0.3c0,0.1,0,0.1,0.1,0.1c0.1,0,0.1-0.1,0.1-0.2c0-0.1,0-0.5,0-0.7
			c0-0.3,0.1-0.6,0.1-0.6c0-0.1,0-0.1-0.1-0.1c-0.1,0-0.1,0-0.1,0.1c-0.1,0.1-0.2,0.2-0.4,0.2c-0.1,0-0.3,0-0.4,0l-1.3,0
			c-0.1,0-0.1,0-0.1-0.1V1.9c0-0.1,0-0.1,0.1-0.1l1.5,0c0.4,0,0.6,0.2,0.6,0.3c0.1,0.1,0.1,0.3,0.1,0.4c0,0.1,0,0.2,0.1,0.2
			s0.1-0.1,0.1-0.1c0-0.1,0-0.7,0-0.8C181,1.5,181.1,1.4,181,1.2C181.1,1.2,181.1,1.2,181,1.2L181,1.2z M80.8,1.3
			c-0.1,0-0.2,0-0.2,0.1c0,0.1,0.1,0.1,0.2,0.1c0.1,0,0.3,0,0.4,0c0.3,0.1,0.4,0.2,0.4,0.6c0,0.3,0,0.6,0,2.1v1.7c0,0.9,0,1.7,0,2.1
			c0,0.3-0.1,0.5-0.3,0.5c-0.1,0-0.2,0-0.4,0c-0.1,0-0.2,0-0.2,0.1c0,0.1,0.1,0.1,0.2,0.1c0.4,0,1,0,1.2,0c0.3,0,0.9,0,1.5,0
			c0.1,0,0.2,0,0.2-0.1c0,0,0-0.1-0.2-0.1c-0.1,0-0.4,0-0.5,0c-0.3,0-0.4-0.3-0.4-0.5c0-0.4,0-1.2,0-2.1V5c0,0,0-0.1,0.1-0.1h3.7
			c0,0,0.1,0,0.1,0.1v0.9c0,0.9,0,1.7,0,2.1c0,0.3-0.1,0.5-0.3,0.5c-0.1,0-0.2,0-0.4,0c-0.1,0-0.2,0-0.2,0.1c0,0.1,0.1,0.1,0.2,0.1
			c0.4,0,1,0,1.2,0c0.3,0,0.9,0,1.5,0c0.1,0,0.2,0,0.2-0.1c0,0,0-0.1-0.2-0.1c-0.1,0-0.4,0-0.5,0c-0.3,0-0.4-0.3-0.4-0.5
			c0-0.4,0-1.2,0-2.1V4.1c0-1.5,0-1.8,0-2.1c0-0.3,0.1-0.5,0.4-0.6c0.1,0,0.2,0,0.3,0c0.1,0,0.2,0,0.2-0.1c0-0.1-0.1-0.1-0.2-0.1
			c-0.4,0-1,0-1.2,0c-0.3,0-0.9,0-1.4,0c-0.1,0-0.2,0-0.2,0.1c0,0.1,0.1,0.1,0.2,0.1c0.1,0,0.3,0,0.4,0c0.3,0.1,0.4,0.2,0.4,0.6
			c0,0.3,0,0.6,0,2.1v0.2c0,0,0,0.1-0.1,0.1h-3.7c0,0-0.1,0-0.1-0.1V4.1c0-1.5,0-1.8,0-2.1c0-0.3,0.1-0.5,0.4-0.6c0.1,0,0.2,0,0.3,0
			c0.1,0,0.2,0,0.2-0.1c0-0.1-0.1-0.1-0.2-0.1c-0.4,0-1,0-1.2,0C81.9,1.3,81.3,1.3,80.8,1.3L80.8,1.3z M98.7,1.3
			c-0.1,0-0.2,0-0.2,0.1c0,0.1,0.1,0.1,0.2,0.1c0.1,0,0.3,0,0.4,0c0.3,0.1,0.4,0.2,0.4,0.6c0,0.3,0,0.6,0,2.1v1.4
			c0,1.4,0.4,2.1,0.9,2.6c0.7,0.6,1.7,0.7,2.2,0.7c0.6,0,1.3-0.1,2-0.7c0.8-0.7,0.9-1.9,0.9-3v-1c0-1.5,0-1.8,0-2.1
			c0-0.3,0.1-0.5,0.4-0.6c0.1,0,0.2,0,0.3,0c0.1,0,0.2,0,0.2-0.1c0-0.1-0.1-0.1-0.2-0.1c-0.4,0-1,0-1.1,0c0,0-0.6,0-1.1,0
			c-0.1,0-0.2,0-0.2,0.1c0,0.1,0.1,0.1,0.2,0.1c0.1,0,0.3,0,0.4,0c0.3,0.1,0.4,0.2,0.4,0.6c0,0.3,0,0.6,0,2.1v1.2c0,1,0,1.9-0.6,2.4
			c-0.4,0.4-0.9,0.5-1.4,0.5c-0.3,0-0.8,0-1.2-0.4c-0.5-0.4-0.8-1-0.8-2.4V4.1c0-1.5,0-1.8,0-2.1c0-0.3,0.1-0.5,0.4-0.6
			c0.1,0,0.2,0,0.3,0c0.1,0,0.2,0,0.2-0.1c0-0.1-0.1-0.1-0.2-0.1c-0.4,0-1,0-1.2,0C99.9,1.3,99.2,1.3,98.7,1.3L98.7,1.3z M116.7,1.3
			c-0.2,0-0.2,0-0.2,0.1c0,0.1,0.1,0.1,0.2,0.1c0.1,0,0.2,0,0.4,0c0.2,0,0.3,0.2,0.3,0.5c0,0.3,0,0.6,0,2.1v0v1.7c0,1,0,1.7,0,2.1
			c0,0.3-0.1,0.5-0.3,0.5c-0.1,0-0.2,0-0.4,0c-0.1,0-0.2,0-0.2,0.1c0,0.1,0.1,0.1,0.2,0.1c0.4,0,1,0,1.2,0c0.3,0,0.9,0,1.5,0
			c0.1,0,0.2,0,0.2-0.1c0,0,0-0.1-0.2-0.1c-0.1,0-0.4,0-0.5,0c-0.3,0-0.4-0.2-0.4-0.5c0-0.4,0-1.2,0-2.1V4.1c0-1.5,0-1.8,0-2.1
			c0-0.3,0.1-0.5,0.4-0.6c0.1,0,0.2,0,0.3,0c0.1,0,0.2,0,0.2-0.1c0-0.1-0.1-0.1-0.2-0.1c-0.4,0-1,0-1.2,0
			C117.7,1.3,117.1,1.3,116.7,1.3L116.7,1.3z M147.1,1.3c-0.2,0-0.2,0-0.2,0.1c0,0.1,0.1,0.1,0.2,0.1c0.1,0,0.2,0,0.4,0
			c0.2,0,0.3,0.2,0.3,0.5c0,0.3,0,0.6,0,2.1v0v1.7c0,1,0,1.7,0,2.1c0,0.3-0.1,0.5-0.3,0.5c-0.1,0-0.2,0-0.4,0c-0.1,0-0.2,0-0.2,0.1
			c0,0.1,0.1,0.1,0.2,0.1c0.4,0,1,0,1.2,0c0.3,0,0.9,0,1.5,0c0.1,0,0.2,0,0.2-0.1c0,0,0-0.1-0.2-0.1c-0.1,0-0.4,0-0.5,0
			c-0.3,0-0.4-0.2-0.4-0.5c0-0.4,0-1.2,0-2.1V4.1c0-1.5,0-1.8,0-2.1c0-0.3,0.1-0.5,0.4-0.6c0.1,0,0.2,0,0.3,0c0.1,0,0.2,0,0.2-0.1
			c0-0.1-0.1-0.1-0.2-0.1c-0.4,0-1,0-1.2,0C148.1,1.3,147.5,1.3,147.1,1.3L147.1,1.3z M170.9,1.6c1.6,0,2.9,1.4,2.9,3.6
			c0,2.8-1.6,3.2-2.3,3.2c-1.9,0-3-1.6-3-3.7C168.5,2.2,169.8,1.6,170.9,1.6z M136.6,1.7c0.6,0,1.5,0.4,1.5,1.8
			c0,0.8-0.3,1.3-0.6,1.5c-0.2,0.1-0.3,0.2-0.7,0.2c-0.2,0-0.5,0-0.7-0.1C136,5,136,5,136,4.9v-3c0-0.1,0-0.1,0.1-0.1
			C136.1,1.7,136.3,1.7,136.6,1.7L136.6,1.7z M101.8,11.6c-0.3,0-0.4,0.3-0.7,1.1l-6.8,17c-0.2,0.6-0.4,1.1-0.6,1.4
			c-0.2,0.3-0.6,0.7-1,0.7c-0.4,0-0.9-0.3-1.2-0.5c-0.1-0.1-0.3-0.2-0.4-0.3c0,0,0,0,0,0v0c-0.6-0.5-1.2-1.1-2.2-2.1
			c-1.1-1-6.3-6.8-7.3-8.1c0.9-1,5-5,5.8-5.8c1.2-1.1,2.1-1.7,2.9-2c0.5-0.2,1.2-0.3,1.6-0.3c0.3,0,0.4-0.1,0.4-0.2
			c0-0.2-0.2-0.2-0.5-0.2c-0.8,0-2.3,0.1-3.2,0.1c-0.7,0-2.2-0.1-2.8-0.1c-0.3,0-0.4,0.1-0.4,0.2c0,0.2,0.1,0.2,0.3,0.3
			c0.3,0.1,0.4,0.2,0.4,0.5c0,0.5-0.6,1.1-1.4,2c-0.8,0.9-4.7,4.9-5.7,5.9h-0.1V20c0-4.1,0-4.9,0.1-5.7c0.1-0.9,0.3-1.4,1-1.5
			c0.3-0.1,0.5-0.1,0.8-0.1c0.2,0,0.4-0.1,0.4-0.2c0-0.2-0.2-0.2-0.6-0.2c-0.9,0-2.6,0.1-3.3,0.1c-0.6,0-2.4-0.1-3.8-0.1
			c-0.4,0-0.6,0.1-0.6,0.2c0,0.2,0.2,0.2,0.5,0.2c0.4,0,0.8,0,1,0.1c0.9,0.2,1.1,0.6,1.2,1.5c0,0.9,0,1.6,0,5.7v4.8
			c0,2.5,0,4.6-0.1,5.8c-0.1,0.8-0.2,1.4-0.8,1.5c-0.2,0.1-0.6,0.1-1,0.1c-0.3,0-0.4,0.1-0.4,0.2c0,0.2,0.2,0.3,0.5,0.3
			c1.1,0,2.8-0.1,3.4-0.1c0.7,0,2.4,0.1,3.9,0.1c0.3,0,0.5-0.1,0.5-0.3c0-0.1-0.1-0.2-0.4-0.2c-0.4,0-0.9-0.1-1.3-0.1
			c-0.7-0.1-0.9-0.7-1-1.5c-0.1-1.2-0.1-3.3-0.1-5.8v-2.5h0.1l0.3,0.4c0.6,0.8,5.9,7,7.1,8.1c1.2,1,1.9,1.6,3.3,1.8
			c0.5,0,0.9,0.1,1.5,0.1h0h6.1c0.3,0,0.5-0.1,0.5-0.3c0-0.2-0.1-0.2-0.4-0.2H97c-0.8,0-1.1-0.3-1.1-0.8c0-0.3,0.1-1,0.4-1.6
			l1.5-3.9c0.1-0.2,0.1-0.2,0.2-0.2h6c0.1,0,0.2,0.1,0.3,0.2l2.2,5.7c0.1,0.3-0.1,0.6-0.2,0.6c-0.3,0-0.4,0.1-0.4,0.2
			c0,0.2,0.3,0.2,0.8,0.2c2.2,0.1,4.1,0.1,5.1,0.1c0.1,0,0.3,0,0.4,0c0,0,0.1,0,0.2,0h6.3c0.4,0,0.6-0.1,0.6-0.3
			c0-0.2-0.2-0.2-0.5-0.2c-0.4,0-0.9,0-1.4-0.2c-0.5-0.2-0.9-0.9-0.9-3l-0.3-11.3h0.1c0.5,0.5,3.5,3.9,6.4,6.8
			c2.8,2.8,6.3,6.3,8,7.9c0.3,0.3,0.6,0.6,0.9,0.6c0.2,0,0.4-0.2,0.4-0.8l0.3-17c0-1.5,0.2-2.1,1-2.3c0.3-0.1,0.5-0.1,0.8-0.1
			c0.3,0,0.5-0.1,0.5-0.2c0-0.2-0.3-0.2-0.6-0.2c-1.3,0-2.3,0.1-2.6,0.1c-0.6,0-1.9-0.1-3.3-0.1c-0.4,0-0.7,0-0.7,0.2
			c0,0.2,0.1,0.2,0.4,0.2c0.4,0,1,0,1.4,0.2c0.6,0.3,0.9,0.8,0.9,2.4l0.3,12.1h-0.1c-0.5-0.4-4.1-4.3-5.9-6.2
			c-3.9-3.9-8.1-8.3-8.4-8.7c-0.5-0.5-0.7-0.8-1-0.8c-0.3,0-0.3,0.4-0.3,0.9l-0.2,16c0,0.9,0,1.6-0.1,2.1c-0.1,0.2-0.4,1.2-1.8,1.2
			c-1.4,0-2.1-1-2.1-1v0c-0.3-0.4-0.6-1-1-1.9c-1.7-4.1-6.1-15.1-6.7-16.6C102.2,11.8,102,11.6,101.8,11.6L101.8,11.6z M158.1,11.6
			c-0.3,0-0.4,0.3-0.8,1.1l-6.8,17c-0.5,1.4-1,2.3-2.3,2.4c-0.2,0-0.6,0.1-0.8,0.1c-0.2,0-0.3,0.1-0.3,0.2c0,0.2,0.2,0.3,0.5,0.3
			c1.4,0,2.9-0.1,3.2-0.1c0.8,0,2,0.1,2.9,0.1c0.3,0,0.5-0.1,0.5-0.3c0-0.2-0.1-0.2-0.4-0.2h-0.4c-0.8,0-1.1-0.3-1.1-0.8
			c0-0.3,0.1-1,0.4-1.6l1.5-3.9c0.1-0.2,0.1-0.2,0.2-0.2h6c0.1,0,0.2,0.1,0.3,0.2l2.2,5.7c0.1,0.3-0.1,0.6-0.2,0.6
			c-0.3,0-0.4,0.1-0.4,0.2c0,0.2,0.3,0.2,0.8,0.2c2.2,0.1,4.1,0.1,5.1,0.1c1,0,1.2-0.1,1.2-0.3c0-0.2-0.1-0.2-0.3-0.2
			c-0.3,0-0.7,0-1.1-0.1c-0.6-0.1-1.4-0.5-2.4-2.9c-1.7-4.1-6-15.1-6.7-16.6C158.6,11.8,158.4,11.6,158.1,11.6L158.1,11.6z
			 M142.9,11.8c-3.8,0-6.2,2.1-6.2,5.1c0,2.2,1,4.1,4,6.4l1.2,1c2.2,1.7,2.6,3,2.6,4.3c0,1.4-1.2,3.1-3.6,3.1
			c-1.7,0-3.3-0.7-3.9-2.7c-0.1-0.5-0.2-1-0.2-1.4c0-0.2,0-0.5-0.3-0.5c-0.2,0-0.3,0.3-0.3,0.7c0,0.4-0.1,2.1-0.1,3.5
			c0,0.6,0.1,0.7,0.5,0.9c1.2,0.5,2.4,0.7,3.9,0.7c1.4,0,2.9-0.2,4.3-1.1c1.9-1.3,2.5-3.1,2.5-4.7c0-2.6-1.2-4.4-4.4-6.9l-0.8-0.6
			c-2.2-1.7-2.9-2.6-2.9-3.9c0-1.6,1.2-2.8,3.2-2.8c1.8,0,2.5,0.8,3,1.3c0.6,0.7,0.7,1.5,0.7,1.8c0,0.3,0.1,0.5,0.3,0.5
			c0.2,0,0.3-0.2,0.3-0.8c0-2.1,0.1-2.9,0.1-3.2c0-0.2-0.1-0.3-0.4-0.3C145.8,12.1,144.7,11.8,142.9,11.8L142.9,11.8z M177.3,11.8
			c-3.8,0-6.2,2.1-6.2,5.1c0,2.2,1,4.1,4,6.4l1.2,1c2.2,1.7,2.7,3,2.7,4.3c0,1.4-1.2,3.1-3.6,3.1c-1.7,0-3.3-0.7-3.9-2.7
			c-0.1-0.5-0.2-1-0.2-1.4c0-0.2,0-0.5-0.3-0.5c-0.2,0-0.3,0.3-0.3,0.7c0,0.4-0.1,2.1-0.1,3.5c0,0.6,0.1,0.7,0.5,0.9
			c1.2,0.5,2.4,0.7,3.9,0.7c1.4,0,2.9-0.2,4.3-1.1c1.9-1.3,2.5-3.1,2.5-4.7c0-2.6-1.2-4.4-4.4-6.9l-0.8-0.6
			c-2.2-1.7-2.9-2.6-2.9-3.9c0-1.6,1.2-2.8,3.2-2.8c1.8,0,2.5,0.8,2.9,1.3c0.6,0.7,0.7,1.5,0.7,1.8c0,0.3,0.1,0.5,0.3,0.5
			c0.2,0,0.3-0.2,0.3-0.8c0-2.1,0.1-2.9,0.1-3.2c0-0.2-0.1-0.3-0.4-0.3C180.2,12.1,179,11.8,177.3,11.8L177.3,11.8z M101.1,17.1
			c0.1,0,0.1,0.1,0.1,0.2l2.4,6.7c0,0.1,0,0.2-0.1,0.2h-5c-0.1,0-0.1-0.1-0.1-0.2l2.5-6.6C101,17.3,101,17.1,101.1,17.1L101.1,17.1z
			 M157.5,17.1c0.1,0,0.1,0.1,0.1,0.2L160,24c0,0.1,0,0.2-0.1,0.2h-5c-0.1,0-0.1-0.1-0.1-0.2l2.5-6.6
			C157.3,17.3,157.4,17.1,157.5,17.1L157.5,17.1z"/>
	</g>
</g>
</svg>
