<?xml version="1.0" encoding="utf-8"?>
<!-- Generator: Adobe Illustrator 24.3.0, SVG Export Plug-In . SVG Version: 6.00 Build 0)  -->
<svg version="1.1" id="Layer_1" xmlns="http://www.w3.org/2000/svg" xmlns:xlink="http://www.w3.org/1999/xlink" x="0px" y="0px"
	 viewBox="0 0 216 44" style="enable-background:new 0 0 216 44;" xml:space="preserve">
<path d="M29.9,35.7L18.1,19.5v11.8h4.7v11.6H1.1V31.3h4.4V13.1H1.1V1.5h17.1l11.8,16.4L41.7,1.5h17.1v11.6h-4.4v18.1h4.4v11.6H37
	V31.3h4.7V19.5L29.9,35.7z"/>
<path d="M145.9,2.1c-2.3,0-4.2,1.4-4.2,3.9c0,2.6,2.1,3.4,3.1,3.8c0.5,0.2,1.1,0.4,1.6,0.6c0.6,0.3,2.1,0.9,2.1,2.4
	c0,1.4-1.2,2-2.7,2c-2,0-3.2-1.2-4-3.3l-0.7,0.1l0.2,2.6l1.1,0.8c0.5,0.3,1.6,1.1,3.4,1.1c2.8,0,4.7-1.9,4.7-4.2
	c0-1.6-0.9-2.8-1.9-3.4c-0.5-0.3-1.2-0.5-1.9-0.8c-1.5-0.5-3.1-1-3.1-2.6c0-1.1,0.8-1.7,2.2-1.7c1.1,0,2,0.4,2.6,1.2
	c0.5,0.7,0.7,1.1,0.9,2l0.7-0.1l-0.4-4L149,3C147.9,2.2,146.8,2.1,145.9,2.1L145.9,2.1z M197.7,2.2c-4.3,0-6.7,3.3-6.7,6.9
	c0,4.2,3,7,6.9,7c3.5,0,6.6-2.4,6.6-7C204.6,5,201.8,2.2,197.7,2.2L197.7,2.2z M171.7,2.3v0.7c1.3,0.1,1.3,0.1,2.3,1.5l3.5,5.5v2.3
	c0,1.5,0,1.8-0.3,2.1c-0.3,0.3-0.7,0.3-1.7,0.4v0.7h6.5v-0.7c-2-0.1-2-0.3-2-2.7V9.4l2.1-3.5c1.5-2.5,1.9-2.9,3.3-2.9V2.3h-5.2v0.7
	c0.9,0.1,1.5,0.1,1.5,0.7c0,0.3-0.2,0.7-0.5,1.4l-1.9,3.3l-2-3.3c-0.3-0.6-0.6-1-0.6-1.3c0-0.6,0.6-0.7,2-0.7V2.3L171.7,2.3
	L171.7,2.3z M128.8,2.3v0.7c1.1,0.1,1.4,0.2,1.5,1c0.1,0.4,0.1,1,0.1,2.6v4.8c0,0.5,0,1.2,0,1.7c0,1.4-0.2,1.7-1.6,1.8v0.7h5.5v-0.7
	c-1.6,0-1.6-0.4-1.6-3.5l0-1.7c1.3,0,1.5-0.1,2.3,1.6l0.7,1.6c1.1,2.2,2.1,3.1,4.6,3.1c0.3,0,0.6,0,0.9,0v-0.5
	c-1.1-0.1-1.5-0.5-2.4-2.1l-2.4-4.1c1.8-0.6,2.6-2.2,2.6-3.5c0-1.8-1-3.4-4.3-3.4L128.8,2.3L128.8,2.3z M117.1,2.3v0.7
	c1,0.1,1.4,0.2,1.5,0.8c0.1,0.4,0.1,1.9,0.1,2.4v4.7c0,0.4,0,2,0,2.3c0,1.5-0.2,1.6-1.6,1.7v0.7h10.1c0-1,0.2-2.5,0.3-3.4h-0.6
	c-0.5,2.4-1.8,2.3-3.7,2.3c-1.8,0-2.1-0.5-2.1-1.3V9.4h1.4c1.6,0,2.1,0.1,2.1,1.6h0.6V6.6h-0.6c-0.1,1.2-0.4,1.6-2.1,1.6H121V3.5
	h1.6c2.3,0,3.1,0.2,3.4,2h0.6l-0.1-3.2H117.1L117.1,2.3z M158.5,2.3l-0.1,3.7h0.7c0.1-2.4,1.1-2.3,2.6-2.3h1.7v9.8
	c0,1.1-0.3,1.5-1.6,1.5v0.6h5.5l0-0.6c-1.2,0-1.6-0.5-1.6-1.5V3.8h1.7c1.5,0,2.5-0.1,2.6,2.3h0.7l-0.1-3.7H158.5L158.5,2.3z
	 M65.5,2.3v0.7c1,0.1,1.4,0.2,1.5,1.1c0,0.3,0,1,0.1,2.4v3c0,2.1,0,4.1,2,5.5c1.2,0.8,2.7,0.9,3.5,0.9c0.9,0,4.4-0.2,5.3-3.8
	c0.2-1,0.3-2,0.3-3c0-0.6,0.2-4.3,0.2-4.6C78.5,3.3,78.7,3,80,3.1V2.3h-5.1v0.7c1.2,0.1,1.8,0.1,1.9,1.3c0,0.4,0,2,0,2.5
	c0,1.5,0,3.9-0.4,5.1c-0.5,1.6-1.5,2.6-3.4,2.6c-0.6,0-1.7-0.1-2.4-1.1c-0.9-1.2-0.9-2.6-0.9-4.3V6.1c0-2.8,0-2.9,1.8-3V2.3
	L65.5,2.3L65.5,2.3z M81,2.3v0.7c0.9,0.1,1.2,0.2,1.9,0.9c0,1.4-0.1,9.3-0.3,10.1c-0.2,0.8-0.6,0.8-1.7,0.8v0.7h5.4v-0.7
	c-2-0.2-2.2-0.3-2.2-2.4V5.6l5.2,6.5c0.6,0.7,1.2,1.5,1.8,2.2l1.2,1.5h0.8l0.2-10.3c0-2.2,0.1-2.5,1.6-2.5V2.3h-5.2v0.7
	C91.9,3.1,92,3.2,92,5.4v5.9l-3.7-4.6c-2-2.4-2.2-2.8-3.3-4.4L81,2.3L81,2.3z M96.5,2.3v0.7C98,3.3,98,3.4,98,6.1v7.1
	c0,1.4-0.3,1.5-1.6,1.7v0.7h5.5v-0.7c-1-0.1-1.4-0.3-1.5-1.1c0-0.4-0.1-1.9-0.1-2.4V6.1c0-2.8,0-2.9,1.6-3.1V2.3L96.5,2.3L96.5,2.3z
	 M103.2,2.3v0.7c1.3,0.2,1.4,0.5,2.4,3l3.6,9.8h0.7l4-9.7c1.1-2.6,1.3-3,2.5-3.2V2.3h-4.6v0.7c0.8,0,1.8,0.1,1.8,1
	c0,0.3-0.2,0.9-0.4,1.4l-2.7,7l-2.3-6.8c-0.4-1.1-0.5-1.4-0.5-1.8c0-0.8,0.7-0.8,1.8-0.8V2.3L103.2,2.3L103.2,2.3z M151.6,2.3v0.7
	c1.6,0.2,1.6,0.3,1.6,3.1v7.1c0,1.4-0.3,1.5-1.6,1.7v0.7h5.5v-0.7c-1-0.1-1.4-0.3-1.5-1.1c0-0.4-0.1-1.9-0.1-2.4V6.1
	c0-2.8,0-2.9,1.6-3.1V2.3L151.6,2.3L151.6,2.3z M205.2,2.4v0.7c1,0.1,1.4,0.2,1.5,0.8c0.1,0.4,0.1,1.9,0.1,2.4l0,4.7
	c0,0.4,0,2,0,2.3c0,1.4-0.2,1.6-1.6,1.7v0.7h5.5V15c-1.4-0.1-1.5-0.3-1.6-1.7l0-3.8h1.5c1.5,0,2.3,0.1,2.4,1.6h0.6V6.7H213
	c-0.1,1.4-0.5,1.6-2.1,1.6h-1.8l0-4.6c0.5-0.1,0.7-0.1,1.6-0.1c2.6,0,3.4,0,3.8,2.1h0.7L215,2.4L205.2,2.4L205.2,2.4z M197.8,3.4
	c1.1,0,2,0.6,2.4,1.1c1,1,1.5,2.5,1.5,4.2c0.1,1.7-0.1,3.1-1.1,4.5c-0.8,1.2-1.9,1.6-2.6,1.6c-0.8,0-1.8-0.3-2.7-1.6
	c-1-1.4-1.2-2.7-1.2-4.5c0-1.7,0.4-3.2,1.4-4.3C195.8,4.1,196.7,3.4,197.8,3.4L197.8,3.4z M133.5,3.5c2.4,0,3.2,1.3,3.1,2.9
	c-0.1,1.1-1.2,2.2-2.7,2.2c-0.4,0-0.9-0.1-1.2-0.1V3.6C133,3.5,133.2,3.5,133.5,3.5L133.5,3.5z M186,21.2c-1,0.7-1.7,1.1-4,1.9
	l0.3,0.5l-5.4,14.9c-0.8,2.1-1.5,2.5-3.6,2.6v1.1h8.3v-1.1c-1.2-0.1-2.7-0.1-2.7-1.6c0-0.4,0.1-0.8,0.3-1.3l0.6-1.7h7.1l0.6,2.1
	c0.1,0.4,0.2,0.8,0.2,1.2c0,1.1-1.1,1.2-2.4,1.3v1.1h17v-1.1c-3.1-0.3-3.3-0.4-3.3-3.7V27l7.9,9.8c0.9,1.1,1.8,2.2,2.7,3.4l1.8,2.3
	h1.2l0.3-15.5c0-3.3,0.2-3.7,2.4-3.8V22h-7.9v1.1c3.2,0.1,3.3,0.3,3.3,3.5v9l-5.6-6.9c-3-3.7-3.3-4.2-5-6.6h-6v1.1
	c1.3,0.1,1.8,0.3,2.9,1.3c0,2.1-0.1,14-0.4,15.3c-0.2,1-0.8,1.1-2.1,1.2c-2-0.2-2.3-0.9-3.1-3.2l-4.4-13.7
	C186.4,22.7,186.4,22.5,186,21.2L186,21.2z M164.2,21.5c-5.5,0-9.8,4.2-9.8,10.6c0,5.3,3.3,10.5,10.2,10.5c3.9,0,6.2-1.4,7.7-2.4
	v-1.5c0.1-3.8,0.1-4.3,1.9-4.4v-1.1h-8.1v1.1c2.2,0.2,2.6,0.3,2.7,2.8c0,0.9-0.1,1.4-0.4,1.9c-0.1,0.1-1.3,1.7-3.5,1.7
	c-3.9,0-6.2-4-6.2-8.6c0-5.8,2.9-8.7,6.4-8.7c2,0,3.3,0.8,4,1.5c1.5,1.5,2.1,2.9,2.5,4.1l0.8-0.1l-0.2-6.3l-1,1.2
	C169.6,22.8,167.6,21.5,164.2,21.5L164.2,21.5z M112.6,21.6c-6.8,0-10.1,5.4-10.1,10.8c0,5.9,3.9,10.3,10,10.3c5.5,0,7.7-3.6,8.6-5
	l-1.2-0.9c-1.1,1.5-2.4,3.5-5.9,3.5c-4.7,0-7-4.2-7-8.6c0-5.2,2.9-8.2,6.5-8.2c2.1,0,3.6,1.3,4.2,2c1.3,1.4,1.8,2.4,2.2,3.5l0.9-0.2
	l-0.1-6.1l-1.4,1.3C118.1,23.1,116.2,21.6,112.6,21.6L112.6,21.6z M66.3,22v1.1c1.8,0,2.2,0.2,2.2,2.2c0,0.7,0,1.7,0,2.3L68.2,36
	c0,1.1-0.1,2.8-0.2,3.3c-0.1,1.4-0.7,1.6-2.4,1.7v1.1h7v-1.1c-2.1-0.2-2.4-0.5-2.4-2.5l0.1-11.8l6.5,15.7h1.8l7-15.5V37
	c0,3.7,0,3.8-2.6,4v1.1h8.8v-1.1c-1.6-0.1-2.2-0.4-2.3-1.9c-0.1-1-0.1-2.7-0.1-4.1v-8.3c0-3.1,0-3.4,2.4-3.5V22h-6.1l-6.9,15.3
	L72.6,22L66.3,22L66.3,22z M93.9,22v1.1c2.4,0.3,2.4,0.5,2.4,4.6v10.7c0,2.1-0.4,2.3-2.4,2.6v1.1h8.3v-1.1c-1.6-0.1-2.1-0.4-2.3-1.6
	c-0.1-0.6-0.1-2.8-0.1-3.6v-8.1c0-4.3,0-4.4,2.4-4.6V22L93.9,22L93.9,22z M122.5,22v1.1c1.6,0.1,2.1,0.3,2.2,1.5
	c0.1,0.6,0.1,1.9,0.1,3.2v8.4c0,0.7,0,1.4,0,2.1c0,1.9,0,2.4-2.3,2.6v1.1h8.6v-1.1c-2.6-0.3-2.6-0.3-2.7-4.5v-3.7
	c1.7-0.1,3.1-0.1,4.8-0.1c1.7,0,3,0.1,4.6,0.1v3.7c0,1.5,0,2.2-0.1,2.8c-0.2,1.4-0.7,1.5-2.7,1.7v1.1h8.7v-1.1
	c-1.5-0.1-2.1-0.3-2.2-1.4c-0.1-0.6-0.1-3.1-0.1-3.9v-8.5c0-3.8,0-3.8,2.3-4.1V22h-8.7v1.1c2.7,0.3,2.8,0.4,2.8,4.1v3.4
	c-1.7,0.1-3.1,0.1-4.8,0.1c-1.7,0-2.9-0.1-4.6-0.1v-2.8c0-1.2,0-2.7,0.2-3.3c0.2-1.1,0.8-1.2,2.5-1.3V22L122.5,22L122.5,22z
	 M145.4,22v1.1c2.4,0.3,2.4,0.5,2.4,4.6v10.7c0,2.1-0.4,2.3-2.4,2.6v1.1h8.4v-1.1c-1.6-0.1-2.1-0.4-2.3-1.6
	c-0.1-0.6-0.1-2.8-0.1-3.6v-8.1c0-4.3,0-4.4,2.4-4.6V22L145.4,22z M183.4,26l2.8,8.3h-5.8L183.4,26L183.4,26z"/>
</svg>
